<svg width="183" height="190" viewBox="0 0 183 190" fill="none" xmlns="http://www.w3.org/2000/svg">
<path d="M3.3669 37.152H0V0H36.7872V3.35833H3.3669V37.152Z" fill="#B4B8D7"/>
<path d="M183 37.152H179.633V3.35833H145.876V0H183V37.152Z" fill="#B4B8D7"/>
<path d="M36.7872 190H0V152.008H3.3669V186.642H36.7872V190Z" fill="#B4B8D7"/>
<path d="M183 190H145.876V186.642H179.633V152.008H183V190Z" fill="#B4B8D7"/>
<path d="M21.5753 79.1484H15.2186V85.489H21.5753V79.1484Z" fill="#B4B8D7"/>
<path d="M21.5753 85.4893H15.2186V91.8298H21.5753V85.4893Z" fill="#B4B8D7"/>
<path d="M21.5753 91.8297H15.2186V98.1703H21.5753V91.8297Z" fill="#B4B8D7"/>
<path d="M21.5753 98.1703H15.2186V104.511H21.5753V98.1703Z" fill="#B4B8D7"/>
<path d="M21.5753 104.511H15.2186V110.851H21.5753V104.511Z" fill="#B4B8D7"/>
<path d="M27.9321 79.1484H21.5754V85.489H27.9321V79.1484Z" fill="#B4B8D7"/>
<path d="M27.9321 104.511H21.5754V110.851H27.9321V104.511Z" fill="#B4B8D7"/>
<path d="M27.9321 110.851H21.5754V117.192H27.9321V110.851Z" fill="#B4B8D7"/>
<path d="M34.2889 66.4672H27.9321V72.8077H34.2889V66.4672Z" fill="#B4B8D7"/>
<path d="M34.2889 72.8079H27.9321V79.1484H34.2889V72.8079Z" fill="#B4B8D7"/>
<path d="M34.2889 91.8297H27.9321V98.1703H34.2889V91.8297Z" fill="#B4B8D7"/>
<path d="M34.2889 110.851H27.9321V117.192H34.2889V110.851Z" fill="#B4B8D7"/>
<path d="M34.2889 117.192H27.9321V123.533H34.2889V117.192Z" fill="#B4B8D7"/>
<path d="M40.6457 66.4672H34.289V72.8077H40.6457V66.4672Z" fill="#B4B8D7"/>
<path d="M40.6457 72.8079H34.289V79.1484H40.6457V72.8079Z" fill="#B4B8D7"/>
<path d="M40.6457 79.1484H34.289V85.489H40.6457V79.1484Z" fill="#B4B8D7"/>
<path d="M40.6457 85.4893H34.289V91.8298H40.6457V85.4893Z" fill="#B4B8D7"/>
<path d="M40.6457 104.511H34.289V110.851H40.6457V104.511Z" fill="#B4B8D7"/>
<path d="M47.0024 79.1484H40.6457V85.489H47.0024V79.1484Z" fill="#B4B8D7"/>
<path d="M47.0024 85.4893H40.6457V91.8298H47.0024V85.4893Z" fill="#B4B8D7"/>
<path d="M47.0024 91.8297H40.6457V98.1703H47.0024V91.8297Z" fill="#B4B8D7"/>
<path d="M47.0024 104.511H40.6457V110.851H47.0024V104.511Z" fill="#B4B8D7"/>
<path d="M53.3593 66.4672H47.0026V72.8077H53.3593V66.4672Z" fill="#B4B8D7"/>
<path d="M53.3593 72.8079H47.0026V79.1484H53.3593V72.8079Z" fill="#B4B8D7"/>
<path d="M53.3593 85.4893H47.0026V91.8298H53.3593V85.4893Z" fill="#B4B8D7"/>
<path d="M53.3593 91.8297H47.0026V98.1703H53.3593V91.8297Z" fill="#B4B8D7"/>
<path d="M53.3593 117.192H47.0026V123.533H53.3593V117.192Z" fill="#B4B8D7"/>
<path d="M59.716 66.4672H53.3593V72.8077H59.716V66.4672Z" fill="#B4B8D7"/>
<path d="M59.716 79.1484H53.3593V85.489H59.716V79.1484Z" fill="#B4B8D7"/>
<path d="M59.716 98.1703H53.3593V104.511H59.716V98.1703Z" fill="#B4B8D7"/>
<path d="M59.716 104.511H53.3593V110.851H59.716V104.511Z" fill="#B4B8D7"/>
<path d="M59.716 110.851H53.3593V117.192H59.716V110.851Z" fill="#B4B8D7"/>
<path d="M66.0728 72.8079H59.7161V79.1484H66.0728V72.8079Z" fill="#B4B8D7"/>
<path d="M66.0728 91.8297H59.7161V98.1703H66.0728V91.8297Z" fill="#B4B8D7"/>
<path d="M66.0728 104.511H59.7161V110.851H66.0728V104.511Z" fill="#B4B8D7"/>
<path d="M66.0728 110.851H59.7161V117.192H66.0728V110.851Z" fill="#B4B8D7"/>
<path d="M72.4296 15.7423H66.0729V22.0829H72.4296V15.7423Z" fill="#B4B8D7"/>
<path d="M72.4296 22.083H66.0729V28.4236H72.4296V22.083Z" fill="#B4B8D7"/>
<path d="M72.4296 34.7642H66.0729V41.1047H72.4296V34.7642Z" fill="#B4B8D7"/>
<path d="M72.4296 60.1267H66.0729V66.4673H72.4296V60.1267Z" fill="#B4B8D7"/>
<path d="M72.4296 66.4672H66.0729V72.8077H72.4296V66.4672Z" fill="#B4B8D7"/>
<path d="M72.4296 79.1484H66.0729V85.489H72.4296V79.1484Z" fill="#B4B8D7"/>
<path d="M72.4296 85.4893H66.0729V91.8298H72.4296V85.4893Z" fill="#B4B8D7"/>
<path d="M72.4296 91.8297H66.0729V98.1703H72.4296V91.8297Z" fill="#B4B8D7"/>
<path d="M72.4296 117.192H66.0729V123.533H72.4296V117.192Z" fill="#B4B8D7"/>
<path d="M72.4296 136.214H66.0729V142.555H72.4296V136.214Z" fill="#B4B8D7"/>
<path d="M72.4296 148.895H66.0729V155.236H72.4296V148.895Z" fill="#B4B8D7"/>
<path d="M72.4296 155.236H66.0729V161.576H72.4296V155.236Z" fill="#B4B8D7"/>
<path d="M72.4296 161.577H66.0729V167.917H72.4296V161.577Z" fill="#B4B8D7"/>
<path d="M72.4296 167.917H66.0729V174.258H72.4296V167.917Z" fill="#B4B8D7"/>
<path d="M78.7864 22.083H72.4297V28.4236H78.7864V22.083Z" fill="#B4B8D7"/>
<path d="M78.7864 28.4235H72.4297V34.764H78.7864V28.4235Z" fill="#B4B8D7"/>
<path d="M78.7864 34.7642H72.4297V41.1047H78.7864V34.7642Z" fill="#B4B8D7"/>
<path d="M78.7864 41.1047H72.4297V47.4453H78.7864V41.1047Z" fill="#B4B8D7"/>
<path d="M78.7864 53.786H72.4297V60.1265H78.7864V53.786Z" fill="#B4B8D7"/>
<path d="M78.7864 72.8079H72.4297V79.1484H78.7864V72.8079Z" fill="#B4B8D7"/>
<path d="M78.7864 79.1484H72.4297V85.489H78.7864V79.1484Z" fill="#B4B8D7"/>
<path d="M78.7864 91.8297H72.4297V98.1703H78.7864V91.8297Z" fill="#B4B8D7"/>
<path d="M78.7864 98.1703H72.4297V104.511H78.7864V98.1703Z" fill="#B4B8D7"/>
<path d="M78.7864 104.511H72.4297V110.851H78.7864V104.511Z" fill="#B4B8D7"/>
<path d="M78.7864 110.851H72.4297V117.192H78.7864V110.851Z" fill="#B4B8D7"/>
<path d="M78.7864 117.192H72.4297V123.533H78.7864V117.192Z" fill="#B4B8D7"/>
<path d="M78.7864 148.895H72.4297V155.236H78.7864V148.895Z" fill="#B4B8D7"/>
<path d="M78.7864 155.236H72.4297V161.576H78.7864V155.236Z" fill="#B4B8D7"/>
<path d="M78.7864 161.577H72.4297V167.917H78.7864V161.577Z" fill="#B4B8D7"/>
<path d="M85.1432 15.7423H78.7864V22.0829H85.1432V15.7423Z" fill="#B4B8D7"/>
<path d="M85.1432 22.083H78.7864V28.4236H85.1432V22.083Z" fill="#B4B8D7"/>
<path d="M85.1432 41.1047H78.7864V47.4453H85.1432V41.1047Z" fill="#B4B8D7"/>
<path d="M85.1432 47.4454H78.7864V53.786H85.1432V47.4454Z" fill="#B4B8D7"/>
<path d="M85.1432 85.4893H78.7864V91.8298H85.1432V85.4893Z" fill="#B4B8D7"/>
<path d="M85.1432 98.1703H78.7864V104.511H85.1432V98.1703Z" fill="#B4B8D7"/>
<path d="M85.1432 104.511H78.7864V110.851H85.1432V104.511Z" fill="#B4B8D7"/>
<path d="M85.1432 110.851H78.7864V117.192H85.1432V110.851Z" fill="#B4B8D7"/>
<path d="M85.1432 117.192H78.7864V123.533H85.1432V117.192Z" fill="#B4B8D7"/>
<path d="M85.1432 136.214H78.7864V142.555H85.1432V136.214Z" fill="#B4B8D7"/>
<path d="M85.1432 155.236H78.7864V161.576H85.1432V155.236Z" fill="#B4B8D7"/>
<path d="M91.5 22.083H85.1433V28.4236H91.5V22.083Z" fill="#B4B8D7"/>
<path d="M91.5 53.786H85.1433V60.1265H91.5V53.786Z" fill="#B4B8D7"/>
<path d="M91.5 60.1267H85.1433V66.4673H91.5V60.1267Z" fill="#B4B8D7"/>
<path d="M91.5 66.4672H85.1433V72.8077H91.5V66.4672Z" fill="#B4B8D7"/>
<path d="M91.5 72.8079H85.1433V79.1484H91.5V72.8079Z" fill="#B4B8D7"/>
<path d="M91.5 91.8297H85.1433V98.1703H91.5V91.8297Z" fill="#B4B8D7"/>
<path d="M91.5 98.1703H85.1433V104.511H91.5V98.1703Z" fill="#B4B8D7"/>
<path d="M91.5 104.511H85.1433V110.851H91.5V104.511Z" fill="#B4B8D7"/>
<path d="M91.5 110.851H85.1433V117.192H91.5V110.851Z" fill="#B4B8D7"/>
<path d="M91.5 117.192H85.1433V123.533H91.5V117.192Z" fill="#B4B8D7"/>
<path d="M91.5 123.533H85.1433V129.873H91.5V123.533Z" fill="#B4B8D7"/>
<path d="M91.5 129.873H85.1433V136.214H91.5V129.873Z" fill="#B4B8D7"/>
<path d="M91.5 148.895H85.1433V155.236H91.5V148.895Z" fill="#B4B8D7"/>
<path d="M91.5 155.236H85.1433V161.576H91.5V155.236Z" fill="#B4B8D7"/>
<path d="M91.5 161.577H85.1433V167.917H91.5V161.577Z" fill="#B4B8D7"/>
<path d="M91.5 167.917H85.1433V174.258H91.5V167.917Z" fill="#B4B8D7"/>
<path d="M97.8567 15.7423H91.5V22.0829H97.8567V15.7423Z" fill="#B4B8D7"/>
<path d="M97.8567 22.083H91.5V28.4236H97.8567V22.083Z" fill="#B4B8D7"/>
<path d="M97.8567 28.4235H91.5V34.764H97.8567V28.4235Z" fill="#B4B8D7"/>
<path d="M97.8567 53.786H91.5V60.1265H97.8567V53.786Z" fill="#B4B8D7"/>
<path d="M97.8567 60.1267H91.5V66.4673H97.8567V60.1267Z" fill="#B4B8D7"/>
<path d="M97.8567 72.8079H91.5V79.1484H97.8567V72.8079Z" fill="#B4B8D7"/>
<path d="M97.8567 98.1703H91.5V104.511H97.8567V98.1703Z" fill="#B4B8D7"/>
<path d="M97.8567 104.511H91.5V110.851H97.8567V104.511Z" fill="#B4B8D7"/>
<path d="M97.8567 129.873H91.5V136.214H97.8567V129.873Z" fill="#B4B8D7"/>
<path d="M97.8567 136.214H91.5V142.555H97.8567V136.214Z" fill="#B4B8D7"/>
<path d="M97.8567 148.895H91.5V155.236H97.8567V148.895Z" fill="#B4B8D7"/>
<path d="M97.8567 167.917H91.5V174.258H97.8567V167.917Z" fill="#B4B8D7"/>
<path d="M104.213 15.7423H97.8568V22.0829H104.213V15.7423Z" fill="#B4B8D7"/>
<path d="M104.213 41.1047H97.8568V47.4453H104.213V41.1047Z" fill="#B4B8D7"/>
<path d="M104.213 47.4454H97.8568V53.786H104.213V47.4454Z" fill="#B4B8D7"/>
<path d="M104.213 53.786H97.8568V60.1265H104.213V53.786Z" fill="#B4B8D7"/>
<path d="M104.213 60.1267H97.8568V66.4673H104.213V60.1267Z" fill="#B4B8D7"/>
<path d="M104.213 66.4672H97.8568V72.8077H104.213V66.4672Z" fill="#B4B8D7"/>
<path d="M104.213 72.8079H97.8568V79.1484H104.213V72.8079Z" fill="#B4B8D7"/>
<path d="M104.213 85.4893H97.8568V91.8298H104.213V85.4893Z" fill="#B4B8D7"/>
<path d="M104.213 91.8297H97.8568V98.1703H104.213V91.8297Z" fill="#B4B8D7"/>
<path d="M104.213 123.533H97.8568V129.873H104.213V123.533Z" fill="#B4B8D7"/>
<path d="M104.213 136.214H97.8568V142.555H104.213V136.214Z" fill="#B4B8D7"/>
<path d="M104.213 161.577H97.8568V167.917H104.213V161.577Z" fill="#B4B8D7"/>
<path d="M110.57 34.7642H104.214V41.1047H110.57V34.7642Z" fill="#B4B8D7"/>
<path d="M110.57 41.1047H104.214V47.4453H110.57V41.1047Z" fill="#B4B8D7"/>
<path d="M110.57 53.786H104.214V60.1265H110.57V53.786Z" fill="#B4B8D7"/>
<path d="M110.57 66.4672H104.214V72.8077H110.57V66.4672Z" fill="#B4B8D7"/>
<path d="M110.57 72.8079H104.214V79.1484H110.57V72.8079Z" fill="#B4B8D7"/>
<path d="M110.57 79.1484H104.214V85.489H110.57V79.1484Z" fill="#B4B8D7"/>
<path d="M110.57 85.4893H104.214V91.8298H110.57V85.4893Z" fill="#B4B8D7"/>
<path d="M110.57 98.1703H104.214V104.511H110.57V98.1703Z" fill="#B4B8D7"/>
<path d="M110.57 104.511H104.214V110.851H110.57V104.511Z" fill="#B4B8D7"/>
<path d="M110.57 123.533H104.214V129.873H110.57V123.533Z" fill="#B4B8D7"/>
<path d="M110.57 148.895H104.214V155.236H110.57V148.895Z" fill="#B4B8D7"/>
<path d="M110.57 161.577H104.214V167.917H110.57V161.577Z" fill="#B4B8D7"/>
<path d="M110.57 167.917H104.214V174.258H110.57V167.917Z" fill="#B4B8D7"/>
<path d="M116.927 15.7423H110.57V22.0829H116.927V15.7423Z" fill="#B4B8D7"/>
<path d="M116.927 41.1047H110.57V47.4453H116.927V41.1047Z" fill="#B4B8D7"/>
<path d="M116.927 53.786H110.57V60.1265H116.927V53.786Z" fill="#B4B8D7"/>
<path d="M116.927 60.1267H110.57V66.4673H116.927V60.1267Z" fill="#B4B8D7"/>
<path d="M116.927 66.4672H110.57V72.8077H116.927V66.4672Z" fill="#B4B8D7"/>
<path d="M116.927 72.8079H110.57V79.1484H116.927V72.8079Z" fill="#B4B8D7"/>
<path d="M116.927 85.4893H110.57V91.8298H116.927V85.4893Z" fill="#B4B8D7"/>
<path d="M116.927 142.554H110.57V148.895H116.927V142.554Z" fill="#B4B8D7"/>
<path d="M116.927 148.895H110.57V155.236H116.927V148.895Z" fill="#B4B8D7"/>
<path d="M123.284 79.1484H116.927V85.489H123.284V79.1484Z" fill="#B4B8D7"/>
<path d="M123.284 104.511H116.927V110.851H123.284V104.511Z" fill="#B4B8D7"/>
<path d="M123.284 110.851H116.927V117.192H123.284V110.851Z" fill="#B4B8D7"/>
<path d="M123.284 123.533H116.927V129.873H123.284V123.533Z" fill="#B4B8D7"/>
<path d="M123.284 142.554H116.927V148.895H123.284V142.554Z" fill="#B4B8D7"/>
<path d="M123.284 148.895H116.927V155.236H123.284V148.895Z" fill="#B4B8D7"/>
<path d="M123.284 155.236H116.927V161.576H123.284V155.236Z" fill="#B4B8D7"/>
<path d="M129.641 79.1484H123.284V85.489H129.641V79.1484Z" fill="#B4B8D7"/>
<path d="M129.641 91.8297H123.284V98.1703H129.641V91.8297Z" fill="#B4B8D7"/>
<path d="M129.641 104.511H123.284V110.851H129.641V104.511Z" fill="#B4B8D7"/>
<path d="M129.641 110.851H123.284V117.192H129.641V110.851Z" fill="#B4B8D7"/>
<path d="M129.641 136.214H123.284V142.555H129.641V136.214Z" fill="#B4B8D7"/>
<path d="M129.641 142.554H123.284V148.895H129.641V142.554Z" fill="#B4B8D7"/>
<path d="M129.641 155.236H123.284V161.576H129.641V155.236Z" fill="#B4B8D7"/>
<path d="M135.997 66.4672H129.641V72.8077H135.997V66.4672Z" fill="#B4B8D7"/>
<path d="M135.997 72.8079H129.641V79.1484H135.997V72.8079Z" fill="#B4B8D7"/>
<path d="M135.997 79.1484H129.641V85.489H135.997V79.1484Z" fill="#B4B8D7"/>
<path d="M135.997 85.4893H129.641V91.8298H135.997V85.4893Z" fill="#B4B8D7"/>
<path d="M135.997 104.511H129.641V110.851H135.997V104.511Z" fill="#B4B8D7"/>
<path d="M135.997 123.533H129.641V129.873H135.997V123.533Z" fill="#B4B8D7"/>
<path d="M135.997 167.917H129.641V174.258H135.997V167.917Z" fill="#B4B8D7"/>
<path d="M142.354 79.1484H135.997V85.489H142.354V79.1484Z" fill="#B4B8D7"/>
<path d="M142.354 85.4893H135.997V91.8298H142.354V85.4893Z" fill="#B4B8D7"/>
<path d="M142.354 104.511H135.997V110.851H142.354V104.511Z" fill="#B4B8D7"/>
<path d="M142.354 110.851H135.997V117.192H142.354V110.851Z" fill="#B4B8D7"/>
<path d="M142.354 117.192H135.997V123.533H142.354V117.192Z" fill="#B4B8D7"/>
<path d="M142.354 129.873H135.997V136.214H142.354V129.873Z" fill="#B4B8D7"/>
<path d="M142.354 136.214H135.997V142.555H142.354V136.214Z" fill="#B4B8D7"/>
<path d="M142.354 142.554H135.997V148.895H142.354V142.554Z" fill="#B4B8D7"/>
<path d="M142.354 148.895H135.997V155.236H142.354V148.895Z" fill="#B4B8D7"/>
<path d="M142.354 155.236H135.997V161.576H142.354V155.236Z" fill="#B4B8D7"/>
<path d="M142.354 167.917H135.997V174.258H142.354V167.917Z" fill="#B4B8D7"/>
<path d="M148.711 79.1484H142.354V85.489H148.711V79.1484Z" fill="#B4B8D7"/>
<path d="M148.711 98.1703H142.354V104.511H148.711V98.1703Z" fill="#B4B8D7"/>
<path d="M148.711 104.511H142.354V110.851H148.711V104.511Z" fill="#B4B8D7"/>
<path d="M148.711 117.192H142.354V123.533H148.711V117.192Z" fill="#B4B8D7"/>
<path d="M148.711 123.533H142.354V129.873H148.711V123.533Z" fill="#B4B8D7"/>
<path d="M148.711 136.214H142.354V142.555H148.711V136.214Z" fill="#B4B8D7"/>
<path d="M148.711 167.917H142.354V174.258H148.711V167.917Z" fill="#B4B8D7"/>
<path d="M155.068 79.1484H148.711V85.489H155.068V79.1484Z" fill="#B4B8D7"/>
<path d="M155.068 91.8297H148.711V98.1703H155.068V91.8297Z" fill="#B4B8D7"/>
<path d="M155.068 104.511H148.711V110.851H155.068V104.511Z" fill="#B4B8D7"/>
<path d="M155.068 110.851H148.711V117.192H155.068V110.851Z" fill="#B4B8D7"/>
<path d="M155.068 117.192H148.711V123.533H155.068V117.192Z" fill="#B4B8D7"/>
<path d="M155.068 136.214H148.711V142.555H155.068V136.214Z" fill="#B4B8D7"/>
<path d="M155.068 148.895H148.711V155.236H155.068V148.895Z" fill="#B4B8D7"/>
<path d="M155.068 161.577H148.711V167.917H155.068V161.577Z" fill="#B4B8D7"/>
<path d="M155.068 167.917H148.711V174.258H155.068V167.917Z" fill="#B4B8D7"/>
<path d="M161.425 72.8079H155.068V79.1484H161.425V72.8079Z" fill="#B4B8D7"/>
<path d="M161.425 79.1484H155.068V85.489H161.425V79.1484Z" fill="#B4B8D7"/>
<path d="M161.425 85.4893H155.068V91.8298H161.425V85.4893Z" fill="#B4B8D7"/>
<path d="M161.425 104.511H155.068V110.851H161.425V104.511Z" fill="#B4B8D7"/>
<path d="M161.425 110.851H155.068V117.192H161.425V110.851Z" fill="#B4B8D7"/>
<path d="M161.425 123.533H155.068V129.873H161.425V123.533Z" fill="#B4B8D7"/>
<path d="M161.425 129.873H155.068V136.214H161.425V129.873Z" fill="#B4B8D7"/>
<path d="M161.425 142.554H155.068V148.895H161.425V142.554Z" fill="#B4B8D7"/>
<path d="M161.425 155.236H155.068V161.576H161.425V155.236Z" fill="#B4B8D7"/>
<path d="M161.425 167.917H155.068V174.258H161.425V167.917Z" fill="#B4B8D7"/>
<path d="M167.781 85.4893H161.425V91.8298H167.781V85.4893Z" fill="#B4B8D7"/>
<path d="M167.781 91.8297H161.425V98.1703H167.781V91.8297Z" fill="#B4B8D7"/>
<path d="M167.781 104.511H161.425V110.851H167.781V104.511Z" fill="#B4B8D7"/>
<path d="M167.781 110.851H161.425V117.192H167.781V110.851Z" fill="#B4B8D7"/>
<path d="M167.781 117.192H161.425V123.533H167.781V117.192Z" fill="#B4B8D7"/>
<path d="M167.781 129.873H161.425V136.214H167.781V129.873Z" fill="#B4B8D7"/>
<path d="M167.781 148.895H161.425V155.236H167.781V148.895Z" fill="#B4B8D7"/>
<path d="M167.781 161.577H161.425V167.917H167.781V161.577Z" fill="#B4B8D7"/>
<path d="M15.2186 15.7434V60.1276H59.7158V15.7434H15.2186ZM56.5377 56.9573H18.397V18.9136H56.5377V56.9573Z" fill="#B4B8D7"/>
<path d="M18.397 18.9127V56.9564H56.5377V18.9127H18.397ZM53.8134 54.239H21.1207V21.6301H53.8134V54.239Z" fill="#B4B8D7"/>
<path d="M47.0024 28.4237H27.9321V47.4455H47.0024V28.4237Z" fill="#B4B8D7"/>
<path d="M15.2186 129.873V174.258H59.7158V129.873H15.2186ZM56.5377 171.087H18.397V133.044H56.5377V171.087Z" fill="#B4B8D7"/>
<path d="M18.397 133.044V171.087H56.5377V133.044H18.397ZM53.8134 168.37H21.1207V135.761H53.8134V168.37Z" fill="#B4B8D7"/>
<path d="M47.0024 142.555H27.9321V161.576H47.0024V142.555Z" fill="#B4B8D7"/>
<path d="M123.284 15.7424V60.1266H167.782V15.7424H123.284ZM164.603 56.9563H126.462V18.9127H164.603L164.603 56.9563Z" fill="#B4B8D7"/>
<path d="M126.462 18.9126V56.9563H164.603V18.9126H126.462ZM161.879 54.2389H129.187V21.63H161.879V54.2389Z" fill="#B4B8D7"/>
<path d="M155.068 28.4235H135.997V47.4452H155.068V28.4235Z" fill="#B4B8D7"/>
</svg>
