<svg width="22" height="22" viewBox="0 0 22 22" fill="none" xmlns="http://www.w3.org/2000/svg">
<path fill-rule="evenodd" clip-rule="evenodd" d="M18.6018 10.2457C18.9678 10.2961 19.25 10.6146 19.25 10.9999C19.25 11.4203 18.9142 11.761 18.5 11.761H5.31673L10.079 16.5746L10.1518 16.6598C10.3703 16.9573 10.3469 17.3802 10.0812 17.651C9.78894 17.9488 9.31407 17.9498 9.02057 17.6532L2.98128 11.5496C2.94531 11.5147 2.91277 11.4761 2.88421 11.4345C2.67975 11.1373 2.70856 10.7249 2.97061 10.4601L9.02061 4.34677L9.10489 4.27326C9.39897 4.05281 9.81558 4.07829 10.0813 4.34909C10.3735 4.64697 10.3725 5.12888 10.079 5.42548L5.31554 10.2388H18.5L18.6018 10.2457Z" fill="#B4B8D7"/>
</svg>
