<svg width="24" height="24" viewBox="0 0 24 24" fill="none" xmlns="http://www.w3.org/2000/svg">
<path fill-rule="evenodd" clip-rule="evenodd" d="M7.6654 2.00021H16.3344C19.7382 2.00021 22.0004 4.42972 22.0004 7.91621V16.0842C22.0004 19.5709 19.738 22.0002 16.3334 22.0002H7.6654C4.26177 22.0002 2.0004 19.5709 2.0004 16.0842V7.91621C2.0004 4.43281 4.26782 2.00021 7.6654 2.00021ZM16.3344 3.50021H7.6654C5.12074 3.50021 3.5004 5.23859 3.5004 7.91621V16.0842C3.5004 18.7655 5.11516 20.5002 7.6654 20.5002H16.3334C18.8848 20.5002 20.5004 18.7654 20.5004 16.0842V7.91621C20.5004 5.23518 18.8849 3.50021 16.3344 3.50021Z" fill="#A6A6A6"/>
</svg>
