<svg width="26" height="24" viewBox="0 0 26 24" fill="none" xmlns="http://www.w3.org/2000/svg">
<path fill-rule="evenodd" clip-rule="evenodd" d="M10.0585 0.75H15.9415C17.1749 0.758603 18.1465 1.39942 18.7099 2.50927C18.7909 2.6676 18.8872 2.8623 19.0032 3.10152L19.8074 4.79221C19.8515 4.88535 19.9446 4.9443 20.072 4.94462L20.3363 4.95183C23.2248 5.1028 25.5 7.49031 25.5 10.3911V17.8032C25.5 20.8107 23.0586 23.25 20.0475 23.25H5.95375C2.94161 23.25 0.5 20.811 0.5 17.8032V10.3911C0.5 7.38248 2.94122 4.9443 5.89396 4.94621L5.98751 4.94216C6.07666 4.93071 6.15509 4.874 6.19346 4.79302L6.80748 3.49713L7.28942 2.51052C7.85566 1.39867 8.82569 0.7586 10.0585 0.75ZM15.935 2.62304L10.0715 2.62302C9.56243 2.62657 9.21844 2.85355 8.96074 3.35955C8.88549 3.50745 8.79341 3.6942 8.68103 3.92648L7.88866 5.59341C7.57603 6.25336 6.94819 6.70732 6.16677 6.80568L5.95375 6.81737C3.97667 6.81737 2.375 8.41704 2.375 10.3911V17.8033C2.375 19.7766 3.97714 21.377 5.95375 21.377H20.0475C22.023 21.377 23.625 19.7764 23.625 17.8033V10.3911C23.625 8.48801 22.132 6.92131 20.2628 6.8233L19.8578 6.809C19.1058 6.74241 18.4393 6.28305 18.1122 5.5926L17.239 3.76057L17.0389 3.35881C16.7825 2.85382 16.4379 2.62657 15.935 2.62304ZM8.08948 13.661C8.06768 10.972 10.2914 8.74052 13.0055 8.74359L13.2579 8.75029C15.8497 8.88516 17.9152 11.0391 17.9107 13.6638C17.9061 16.3637 15.7037 18.5651 13.0025 18.5682C10.2965 18.5698 8.0879 16.3592 8.08948 13.661ZM16.0357 13.6606C16.0386 11.9856 14.6757 10.6186 13.0034 10.6166L12.8041 10.623C11.2224 10.7259 9.9516 12.0652 9.96444 13.654C9.96349 15.3258 11.3326 16.6962 13.0009 16.6952C14.6676 16.6933 16.0328 15.3286 16.0357 13.6606ZM18.7547 10.6346C18.8883 10.6883 19.0076 10.7198 19.1283 10.7322L19.2502 10.7383L19.3742 10.7322C19.6613 10.7037 19.9304 10.577 20.1354 10.3709C20.3725 10.1193 20.5002 9.81704 20.5002 9.49022C20.5002 9.32006 20.4654 9.15142 20.3963 8.99631L20.3679 8.92335C20.3199 8.82045 20.2334 8.69843 20.1306 8.59732C19.7878 8.25504 19.2393 8.14598 18.7782 8.3285C18.6227 8.39693 18.509 8.47467 18.3979 8.57128C18.2519 8.7133 18.1712 8.84386 18.103 8.99864C18.035 9.15142 18.0002 9.32006 18.0002 9.49022C18.0002 9.81056 18.1296 10.1211 18.3531 10.3585C18.4774 10.4847 18.6061 10.5686 18.7547 10.6346Z" fill="#B4B8D7"/>
</svg>
