<svg width="100" height="100" viewBox="0 0 100 100" fill="none" xmlns="http://www.w3.org/2000/svg">
<path d="M35.9769 47.7699C37.4962 46.0066 38.4157 43.7124 38.4157 41.2077C38.4157 35.6577 33.9006 31.1426 28.3506 31.1426C22.8004 31.1426 18.285 35.6577 18.285 41.2077C18.285 43.7124 19.2048 46.0066 20.7241 47.7699C17.1949 49.6576 14.7885 53.3806 14.7885 57.655V66.4474C14.7885 67.7785 15.8673 68.8573 17.1984 68.8573H39.5026C40.8337 68.8573 41.9125 67.7785 41.9125 66.4474V57.655C41.9128 53.3806 39.5063 49.6576 35.9769 47.7699ZM28.3506 35.9624C31.2431 35.9624 33.5959 38.3155 33.5959 41.2077C33.5959 44.0822 31.2717 46.4243 28.4039 46.453H28.2973C25.4293 46.4243 23.1048 44.0822 23.1048 41.2077C23.1051 38.3153 25.4582 35.9624 28.3506 35.9624ZM37.093 64.0375H19.6086V57.655C19.6086 54.1357 22.4713 51.2728 25.9903 51.2728H28.2773C28.326 51.2728 28.3755 51.2728 28.4243 51.2728H30.711C34.2303 51.2728 37.0932 54.1357 37.0932 57.655V64.0375H37.093ZM52.4218 39.3826C52.4218 38.0515 53.5007 36.9727 54.8317 36.9727H67.8589C69.1899 36.9727 70.2688 38.0515 70.2688 39.3826C70.2688 40.7137 69.1899 41.7925 67.8589 41.7925H54.8317C53.5009 41.7925 52.4218 40.7137 52.4218 39.3826ZM89.7978 11.8974H83.2627C83.2308 11.8968 83.199 11.8968 83.1671 11.8974H70.6123C70.5804 11.8968 70.5486 11.8968 70.5167 11.8974H57.9622C57.9301 11.8968 57.8979 11.8968 57.8663 11.8974H45.3107C45.2791 11.8968 45.2478 11.8968 45.2159 11.8974H32.6611C32.6293 11.8968 32.5974 11.8968 32.5656 11.8974H20.011C19.9792 11.8968 19.9473 11.8968 19.9154 11.8974H10.2017C4.57641 11.8974 0 16.474 0 22.099V77.9001C0 83.5256 4.57641 88.1022 10.2017 88.1022H16.7373C16.7697 88.1031 16.8016 88.1028 16.8332 88.1022H29.3877C29.4201 88.1031 29.452 88.1028 29.4836 88.1022H42.0386C42.0702 88.1028 42.1018 88.1028 42.1334 88.1022H54.689C54.7206 88.1028 54.7522 88.1028 54.7838 88.1022H67.3386C67.3546 88.1025 67.3707 88.1028 67.3865 88.1028C67.4026 88.1028 67.4186 88.1025 67.4344 88.1022H79.9892C80.0211 88.1028 80.053 88.1028 80.0846 88.1022H89.7973C95.4228 88.1022 99.9995 83.5256 99.9995 77.9001V22.099C100 16.474 95.4233 11.8974 89.7978 11.8974ZM95.1802 77.9001C95.1802 80.868 92.7657 83.2824 89.7978 83.2824H84.0422L85.3424 80.8268C85.9653 79.6505 85.5165 78.1922 84.3404 77.5691C83.1641 76.946 81.7056 77.3951 81.0831 78.5714L78.5885 83.2824H71.392L72.6923 80.8268C73.3151 79.6505 72.8666 78.1922 71.6903 77.5691C70.5135 76.9463 69.0558 77.3948 68.4327 78.5711L65.9379 83.2824H58.7414L60.0417 80.8268C60.6645 79.6505 60.216 78.1922 59.0397 77.5691C57.8634 76.9463 56.4049 77.3948 55.782 78.5711L53.2872 83.2824H46.0907L47.391 80.8268C48.0138 79.6505 47.5653 78.1922 46.389 77.5691C45.2125 76.9463 43.7545 77.3948 43.1314 78.5711L40.6366 83.2824H33.4401L34.7404 80.8268C35.3632 79.6505 34.9147 78.1922 33.7384 77.5691C32.5615 76.9463 31.1038 77.3948 30.4807 78.5711L27.9859 83.2824H20.7905L22.0908 80.8268C22.7136 79.6505 22.2651 78.1922 21.0888 77.5691C19.9125 76.9463 18.4542 77.3948 17.8311 78.5711L15.3364 83.2824H10.2017C7.23399 83.2824 4.81981 80.868 4.81981 77.9001V22.099C4.81981 19.1314 7.23426 16.7172 10.2017 16.7172H15.9581L14.6578 19.1726C14.035 20.3489 14.4835 21.8072 15.6598 22.4303C16.8359 23.0528 18.2941 22.6043 18.9175 21.4283L21.4123 16.7172H28.6082L27.308 19.1726C26.6851 20.3489 27.1336 21.8072 28.3099 22.4303C29.4862 23.0528 30.9445 22.6043 31.5676 21.4283L34.0624 16.7172H41.2586L39.9583 19.1729C39.3355 20.3492 39.7843 21.8074 40.9606 22.4303C42.1366 23.0528 43.5954 22.6043 44.218 21.4283L46.7125 16.7172H53.9093L52.609 19.1726C51.9862 20.3489 52.4347 21.8072 53.611 22.4303C54.787 23.0528 56.2455 22.6043 56.8686 21.4283L59.3634 16.7172H66.5599L65.2596 19.1726C64.6368 20.3489 65.0853 21.8072 66.2616 22.4303C67.4379 23.0528 68.8962 22.6043 69.5193 21.4283L72.0141 16.7172H79.2106L77.9103 19.1726C77.2875 20.3489 77.736 21.8072 78.9123 22.4303C80.0886 23.0528 81.5468 22.6043 82.1699 21.4283L84.6647 16.7172H89.7991C92.7671 16.7172 95.1815 19.1316 95.1815 22.099V77.9001H95.1802ZM85.6225 60.6168C85.6225 61.9478 84.5437 63.0267 83.2126 63.0267H54.8317C53.5007 63.0267 52.4218 61.9478 52.4218 60.6168C52.4218 59.2857 53.5007 58.2069 54.8317 58.2069H83.2126C84.5437 58.2069 85.6225 59.2857 85.6225 60.6168ZM85.6225 51.0425C85.6225 52.3736 84.5437 53.4524 83.2126 53.4524H54.8317C53.5007 53.4524 52.4218 52.3736 52.4218 51.0425C52.4218 49.7114 53.5007 48.6326 54.8317 48.6326H83.2126C84.5437 48.6326 85.6225 49.7117 85.6225 51.0425Z" fill="#B4B8D7" fill-opacity="0.7"/>
</svg>
