<svg width="20" height="20" viewBox="0 0 20 20" fill="none" xmlns="http://www.w3.org/2000/svg">
    <g clip-path="url(#clip0_1_4468)">
        <path
            d="M17.3913 7.82615L10 12.6087L2.60874 7.82615V0.434855C2.60365 0.199829 2.79005 0.00519709 3.02507 0.000102013C3.03123 -2.02692e-05 3.03738 -2.02692e-05 3.04354 0.000102013H16.9565C17.1915 -0.00499307 17.3862 0.181405 17.3913 0.416431C17.3914 0.422586 17.3914 0.428741 17.3913 0.434896V7.82615Z"
            fill="#F1F2F2" />
        <path d="M2.60868 7.82633L0 6.0872L2.60868 3.47852V7.82633Z" fill="#4575F6" />
        <path d="M19.9999 6.0872L17.3912 7.82633V3.47852L19.9999 6.0872Z" fill="#4575F6" />
        <path d="M17.3912 7.78692L19.9999 6.08691V18.2608C19.9991 18.7219 19.8163 19.1641 19.4912 19.4912L16.5217 16.5217L11.7391 11.7391L11.6173 11.5521L17.3912 7.78692Z" fill="#4B7BFF" />
        <path
            d="M16.5218 16.5218L19.4913 19.4913C19.1642 19.8164 18.722 19.9992 18.2609 20H1.73923C1.27806 19.9992 0.835893 19.8164 0.508789 19.4913L3.47832 16.5218L8.2609 11.7392L8.38265 11.5522L10 12.6088L11.6174 11.5522L11.7392 11.7392L16.5218 16.5218Z"
            fill="#4575F6" />
        <path d="M8.38268 11.5521L8.26093 11.7391L3.47835 16.5216L0.508815 19.4912C0.183749 19.1641 0.000937284 18.7219 0.00012207 18.2607V6.08691L8.38268 11.5521Z" fill="#4B7BFF" />
        <path
            d="M14.7826 10.4347C17.664 10.4347 19.9999 8.09885 19.9999 5.21737C19.9999 2.3359 17.664 0 14.7826 0C11.9011 0 9.56519 2.3359 9.56519 5.21737C9.56519 8.09885 11.9011 10.4347 14.7826 10.4347Z"
            fill="#49AAEE" />
        <path
            d="M14.7826 7.82619C14.5425 7.82619 14.3478 7.63151 14.3478 7.39139V4.29052L13.7195 4.70967C13.5198 4.84295 13.2498 4.78903 13.1165 4.58922C12.9832 4.38945 13.0371 4.11945 13.2369 3.98616L14.5413 3.11662C14.741 2.98333 15.011 3.03725 15.1442 3.23698C15.1919 3.30844 15.2174 3.39244 15.2174 3.47837V7.39139C15.2174 7.63151 15.0227 7.82619 14.7826 7.82619Z"
            fill="#F1F2F2" />
    </g>
    <defs>
        <clipPath id="clip0_1_4468">
            <rect width="20" height="20" fill="white" />
        </clipPath>
    </defs>
</svg>
