<svg width="20" height="20" viewBox="0 0 20 20" fill="none" xmlns="http://www.w3.org/2000/svg">
    <g clip-path="url(#clip0_1_4486)">
        <path
            d="M0.574447 4.30515C0.249779 4.28986 0 4.01018 0 3.68515V0.603622C0 0.270262 0.270262 0 0.603622 0H3.68515C4.01018 0 4.28986 0.249779 4.30515 0.574447C4.32149 0.921087 4.04527 1.20724 3.70221 1.20724H1.36821C1.27932 1.20724 1.20724 1.27932 1.20724 1.36821V3.70221C1.20724 4.04527 0.921087 4.32149 0.574447 4.30515Z"
            fill="#6CBFF8" />
        <path
            d="M3.70221 20.0002H0.603622C0.270262 20.0002 0 19.7299 0 19.3966V16.315C0 15.99 0.249779 15.7103 0.574447 15.695C0.921086 15.6787 1.20724 15.9549 1.20724 16.298V18.632C1.20724 18.7209 1.27932 18.7929 1.36821 18.7929H3.68515C4.01018 18.7929 4.28986 19.0427 4.30515 19.3674C4.32149 19.714 4.04527 20.0002 3.70221 20.0002Z"
            fill="#6CBFF8" />
        <path
            d="M19.3673 4.30515C19.0426 4.28986 18.7928 4.01018 18.7928 3.68515V1.36821C18.7928 1.27932 18.7207 1.20724 18.6318 1.20724H16.3149C15.9899 1.20724 15.7102 0.957465 15.6949 0.632797C15.6786 0.286157 15.9548 0 16.2978 0H19.3964C19.7298 0 20.0001 0.270262 20.0001 0.603622V3.70221C20.0001 4.04527 19.7139 4.32149 19.3673 4.30515Z"
            fill="#6CBFF8" />
        <path
            d="M19.3964 20.0002H16.3149C15.9899 20.0002 15.7102 19.7504 15.6949 19.4257C15.6786 19.0791 15.9548 18.7929 16.2978 18.7929H18.6318C18.7207 18.7929 18.7928 18.7209 18.7928 18.632V16.315C18.7928 15.99 19.0426 15.7103 19.3673 15.695C19.7139 15.6787 20.0001 15.9549 20.0001 16.298V19.3966C20.0001 19.7299 19.7298 20.0002 19.3964 20.0002Z"
            fill="#6CBFF8" />
        <path
            d="M17.0597 15.9443C16.9841 15.9443 16.9073 15.93 16.8329 15.8998C16.524 15.7745 16.3752 15.4224 16.5006 15.1135C17.1256 13.5737 17.4435 11.9444 17.4455 10.2708C17.4424 8.31865 16.6865 6.47398 15.3162 5.07535C15.0829 4.83724 15.0869 4.45507 15.325 4.22175C15.5631 3.98847 15.9453 3.99237 16.1786 4.23052C17.7653 5.85004 18.643 7.98485 18.6526 10.2453C18.6527 10.2486 18.6527 10.2519 18.6527 10.2552V10.2828C18.6527 10.2852 18.6527 10.2875 18.6527 10.2899C18.6483 12.1133 18.3007 13.8887 17.6191 15.5676C17.524 15.8021 17.2981 15.9443 17.0597 15.9443Z"
            fill="#2F67FF" />
        <path
            d="M6.40526 3.6857C6.18405 3.6857 5.97105 3.56369 5.86518 3.3525C5.71576 3.05447 5.83624 2.69177 6.13427 2.54236C7.342 1.93688 8.64268 1.62988 10.0001 1.62988C11.0218 1.62988 12.0227 1.80719 12.975 2.15689C13.288 2.27177 13.4485 2.61866 13.3336 2.93157C13.2187 3.24453 12.8717 3.40493 12.5589 3.29017C11.7403 2.98952 10.8794 2.83713 10.0001 2.83713C8.83222 2.83713 7.71358 3.10107 6.67532 3.62155C6.58852 3.66505 6.49616 3.6857 6.40526 3.6857Z"
            fill="#2F67FF" />
        <path
            d="M1.95091 10.8861C1.61755 10.8861 1.34729 10.6158 1.34729 10.2824C1.34729 8.00795 2.22604 5.8585 3.82162 4.23001C4.05494 3.99186 4.43707 3.98799 4.67522 4.22131C4.91333 4.45459 4.91723 4.83677 4.68391 5.07492C3.31075 6.47636 2.55453 8.32578 2.55453 10.2824C2.55453 10.6158 2.28431 10.8861 1.95091 10.8861Z"
            fill="#2F67FF" />
        <path
            d="M5.98268 17.8513C5.77467 17.8513 5.57225 17.7437 5.46022 17.5508C5.29274 17.2626 5.39064 16.8931 5.67889 16.7256C7.97198 15.3932 9.39648 12.9244 9.39648 10.2828C9.39648 9.94946 9.66675 9.6792 10.0001 9.6792C10.3335 9.6792 10.6037 9.94946 10.6037 10.2828C10.6037 11.8241 10.1914 13.3386 9.41133 14.6625C8.65483 15.9464 7.57391 17.0208 6.28541 17.7695C6.18996 17.8249 6.08566 17.8513 5.98268 17.8513Z"
            fill="#2F67FF" />
        <path
            d="M9.03044 18.8531C8.8671 18.8531 8.70433 18.7872 8.58529 18.6574C8.36002 18.4116 8.37664 18.0298 8.6224 17.8045C9.39016 17.1008 10.0435 16.2882 10.5643 15.3895C10.7314 15.101 11.1008 15.0027 11.3892 15.1698C11.6777 15.337 11.776 15.7063 11.6089 15.9947C11.0266 16.9996 10.2963 17.9079 9.43817 18.6945C9.32228 18.8007 9.17616 18.8531 9.03044 18.8531Z"
            fill="#2F67FF" />
        <path
            d="M3.73259 15.9442C3.47496 15.9442 3.23633 15.778 3.15617 15.5189C3.05762 15.2005 3.23585 14.8624 3.55436 14.7638C5.53183 14.1518 6.86044 12.351 6.86044 10.2827C6.86044 8.55152 8.26889 7.14307 10.0001 7.14307C11.7313 7.14307 13.1398 8.55152 13.1398 10.2827C13.1398 11.3081 13.0036 12.325 12.735 13.305C12.647 13.6265 12.3148 13.8156 11.9933 13.7277C11.6718 13.6396 11.4826 13.3075 11.5707 12.9859C11.8108 12.1098 11.9325 11.2004 11.9325 10.2827C11.9325 9.21719 11.0656 8.35031 10.0001 8.35031C8.93452 8.35031 8.06764 9.21719 8.06764 10.2827C8.06764 11.5662 7.66076 12.7873 6.8909 13.8138C6.14716 14.8056 5.08893 15.5526 3.91122 15.9171C3.85183 15.9355 3.79171 15.9442 3.73259 15.9442Z"
            fill="#2F67FF" />
        <path
            d="M13.1095 18.2737C12.9964 18.2737 12.8822 18.242 12.7804 18.1757C12.5011 17.9936 12.4223 17.6196 12.6044 17.3404C13.5488 15.8917 14.1818 14.2929 14.486 12.5885C14.5445 12.2603 14.8585 12.0417 15.1862 12.1003C15.5144 12.1589 15.733 12.4724 15.6744 12.8006C15.3416 14.6653 14.649 16.4145 13.6157 17.9996C13.4999 18.1772 13.3067 18.2737 13.1095 18.2737Z"
            fill="#2F67FF" />
        <path
            d="M15.2578 10.2832C14.955 10.2832 14.6939 10.0559 14.6588 9.7478C14.389 7.37947 12.3863 5.59347 10.0001 5.59347C9.26742 5.59347 8.56553 5.75842 7.91386 6.08374C7.61563 6.23251 7.25306 6.1115 7.1042 5.81323C6.95531 5.51496 7.07644 5.15247 7.37471 5.00357C8.19527 4.59392 9.07861 4.38623 10.0001 4.38623C11.4555 4.38623 12.8541 4.92293 13.9382 5.89746C15.0137 6.86426 15.6956 8.18317 15.8583 9.61122C15.896 9.94241 15.6581 10.2415 15.3269 10.2793C15.3037 10.2819 15.2806 10.2832 15.2578 10.2832Z"
            fill="#2F67FF" />
        <path
            d="M2.17149 13.4225C1.83813 13.4225 1.56787 13.1522 1.56787 12.8188C1.56787 12.4855 1.83813 12.2152 2.17149 12.2152C3.23705 12.2152 4.10393 11.3483 4.10393 10.2828C4.10393 9.29599 4.35375 8.31864 4.82634 7.45659C4.98662 7.16428 5.35355 7.05728 5.64582 7.21748C5.93813 7.37772 6.04522 7.74464 5.88494 8.03695C5.50956 8.72166 5.31113 9.49824 5.31113 10.2828C5.31113 12.014 3.90268 13.4225 2.17149 13.4225Z"
            fill="#2F67FF" />
        <path
            d="M8.36056 1.78467C8.03461 2.26716 7.74245 2.76374 7.48612 3.2728C7.21086 3.37219 6.94044 3.48809 6.67525 3.62129C6.58833 3.66475 6.49618 3.68567 6.40523 3.68567C6.1839 3.68567 5.97103 3.56334 5.86519 3.35247C5.71549 3.05428 5.83622 2.69171 6.134 2.54201C6.84628 2.18507 7.59115 1.93195 8.36056 1.78467Z"
            fill="#0246FF" />
        <path
            d="M1.95091 10.8861C1.61755 10.8861 1.34729 10.6158 1.34729 10.2824C1.34729 8.00795 2.22604 5.8585 3.82162 4.23001C4.05494 3.99186 4.43707 3.98799 4.67522 4.22131C4.91333 4.45459 4.91723 4.83677 4.68391 5.07492C3.31075 6.47636 2.55453 8.32578 2.55453 10.2824C2.55453 10.6158 2.28431 10.8861 1.95091 10.8861Z"
            fill="#0246FF" />
        <path
            d="M8.61531 15.795C7.96299 16.5821 7.17346 17.2529 6.28533 17.7688C6.18996 17.8243 6.08573 17.8509 5.98271 17.8509C5.77466 17.8509 5.57225 17.7431 5.45998 17.5503C5.29257 17.2622 5.39076 16.8928 5.67889 16.7249C6.56501 16.2099 7.32114 15.5254 7.91591 14.7266C8.1304 15.0899 8.3638 15.4465 8.61531 15.795Z"
            fill="#0246FF" />
        <path
            d="M10.3248 17.7866C10.0472 18.1045 9.75138 18.4075 9.4383 18.6944C9.32241 18.8007 9.17633 18.853 9.03066 18.853C8.86728 18.853 8.7043 18.787 8.58518 18.6574C8.36023 18.4115 8.37673 18.0297 8.62261 17.8043C8.93207 17.5206 9.22301 17.2188 9.49384 16.9009C9.75662 17.2035 10.0339 17.4989 10.3248 17.7866Z"
            fill="#0246FF" />
        <path
            d="M7.20609 13.3494C7.1091 13.5084 7.00407 13.6633 6.89099 13.8138C6.14693 14.8058 5.08898 15.5527 3.91112 15.9168C3.85196 15.9353 3.7916 15.9442 3.73245 15.9442C3.4749 15.9442 3.23627 15.778 3.15619 15.5188C3.0576 15.2005 3.23587 14.8625 3.55418 14.7639C5.04432 14.3027 6.16625 13.1663 6.62822 11.749C6.78234 12.2931 6.9759 12.8271 7.20609 13.3494Z"
            fill="#0246FF" />
        <path
            d="M2.17149 13.422C1.83813 13.422 1.56787 13.1517 1.56787 12.8184C1.56787 12.485 1.83813 12.2147 2.17149 12.2147C3.23705 12.2147 4.10393 11.3479 4.10393 10.2823C4.10393 9.2955 4.35375 8.31816 4.82634 7.4561C4.98662 7.16379 5.35355 7.05679 5.64582 7.21699C5.93813 7.37723 6.04522 7.74415 5.88494 8.03647C5.50956 8.72118 5.31113 9.49776 5.31113 10.2823C5.31113 12.0135 3.90268 13.422 2.17149 13.422Z"
            fill="#0246FF" />
    </g>
    <defs>
        <clipPath id="clip0_1_4486">
            <rect width="20" height="20" fill="white" />
        </clipPath>
    </defs>
</svg>
