<svg width="20" height="20" viewBox="0 0 20 20" fill="none" xmlns="http://www.w3.org/2000/svg">
    <g clip-path="url(#clip0_1_4536)">
        <path
            d="M18.0129 1.98711C16.7316 0.705469 15.0281 0 13.216 0C11.4043 0 9.70039 0.705469 8.41914 1.98711C7.36953 3.03672 6.70547 4.3668 6.49922 5.83359C6.31992 7.10547 6.51094 8.42188 7.0375 9.58672L0 16.6238V20H3.37617L4.46797 18.9078L4.45938 17.6727L5.71211 17.6641L7.05391 16.3223V15.207L8.18086 15.1953L10.4133 12.9625C11.5781 13.4891 12.8945 13.6801 14.1664 13.5012C15.6332 13.2945 16.9633 12.6305 18.0129 11.5809C19.2945 10.2996 20 8.5957 20 6.78398C20 4.97188 19.2945 3.26836 18.0129 1.98711ZM15.7754 6.65703C15.1039 7.32891 14.0148 7.32891 13.343 6.65703C12.6711 5.98516 12.6711 4.89609 13.343 4.22461C14.0148 3.55273 15.1039 3.55273 15.7754 4.22461C16.4473 4.89609 16.4473 5.98516 15.7754 6.65703Z"
            fill="#0045FF" />
        <path
            d="M20 6.78418C20 8.5959 19.2945 10.2998 18.0129 11.5811C16.9633 12.6307 15.6332 13.2947 14.1664 13.5014C12.8945 13.6803 11.5781 13.4893 10.4133 12.9627L8.18086 15.1955L7.05391 15.2072V16.3225L5.71211 17.6643L4.45938 17.6729L4.46797 18.908L3.37617 20.0002H0L13.343 6.65723C14.0148 7.3291 15.1039 7.3291 15.7754 6.65723C16.4473 5.98535 16.4473 4.89629 15.7754 4.2248L18.0129 1.9873C19.2945 3.26855 20 4.97207 20 6.78418Z"
            fill="#2F76FF" />
        <path
            d="M16.1898 3.81016C15.2906 2.91094 13.8277 2.91094 12.9285 3.81016C12.0297 4.70938 12.0297 6.17227 12.9285 7.07148C13.3641 7.50703 13.9434 7.74688 14.5594 7.74688C14.8672 7.74688 15.166 7.68672 15.4422 7.57266C15.7184 7.4582 15.9719 7.28906 16.1898 7.07148C16.6254 6.63594 16.8652 6.05664 16.8652 5.44062C16.8652 4.825 16.6254 4.2457 16.1898 3.81016ZM15.6078 5.875C15.5516 6.01094 15.4684 6.13555 15.3613 6.24258C15.1469 6.45703 14.8621 6.575 14.5594 6.575C14.2562 6.575 13.9715 6.45703 13.7574 6.24258C13.3152 5.80039 13.3152 5.08086 13.7574 4.63867C13.9785 4.41758 14.2687 4.30703 14.5594 4.30703C14.8496 4.30703 15.1402 4.41758 15.3613 4.63867C15.5754 4.85312 15.6934 5.13789 15.6934 5.44062C15.6934 5.59219 15.6641 5.73906 15.6078 5.875Z"
            fill="#2F67FF" />
        <path
            d="M16.8652 5.44053C16.8652 6.05654 16.6253 6.63584 16.1898 7.07139C15.9718 7.28896 15.7183 7.45811 15.4421 7.57256C15.166 7.68662 14.8671 7.74678 14.5593 7.74678C13.9433 7.74678 13.364 7.50693 12.9285 7.07139L13.7574 6.24248C13.9714 6.45693 14.2562 6.5749 14.5593 6.5749C14.8621 6.5749 15.1468 6.45693 15.3613 6.24248C15.4683 6.13545 15.5515 6.01084 15.6078 5.8749C15.664 5.73896 15.6933 5.59209 15.6933 5.44053C15.6933 5.13779 15.5753 4.85303 15.3613 4.63857L16.1898 3.81006C16.6253 4.24561 16.8652 4.8249 16.8652 5.44053Z"
            fill="#0045FF" />
    </g>
    <defs>
        <clipPath id="clip0_1_4536">
            <rect width="20" height="20" fill="white" />
        </clipPath>
    </defs>
</svg>
