<svg width="100" height="100" viewBox="0 0 100 100" fill="none" xmlns="http://www.w3.org/2000/svg">
<path d="M93.6305 17.4082H6.36953C2.85742 17.4082 0 20.2656 0 23.7777V76.2223C0 79.7344 2.85742 82.5918 6.36953 82.5918H93.6305C97.1426 82.5918 100 79.7344 100 76.2223V23.7777C100 20.2656 97.1426 17.4082 93.6305 17.4082ZM95.7537 76.2221C95.7537 77.3928 94.8012 78.3453 93.6305 78.3453H6.36953C5.19883 78.3453 4.24629 77.3928 4.24629 76.2221V23.7775C4.24629 22.6068 5.19883 21.6543 6.36953 21.6543H93.6305C94.8012 21.6543 95.7537 22.6068 95.7537 23.7775V76.2221Z" fill="#B4B8D7" fill-opacity="0.6"/>
<path d="M82.4427 36.0366H59.6566C58.484 36.0366 57.5334 36.9874 57.5334 38.1599C57.5334 39.3325 58.484 40.2831 59.6566 40.2831H82.4427C83.6154 40.2831 84.566 39.3325 84.566 38.1599C84.566 36.9874 83.6154 36.0366 82.4427 36.0366Z" fill="#B4B8D7" fill-opacity="0.6"/>
<path d="M82.4427 47.877H59.6566C58.484 47.877 57.5334 48.8275 57.5334 50.0002C57.5334 51.1727 58.484 52.1234 59.6566 52.1234H82.4427C83.6154 52.1234 84.566 51.1727 84.566 50.0002C84.566 48.8275 83.6154 47.877 82.4427 47.877Z" fill="#B4B8D7" fill-opacity="0.6"/>
<path d="M82.4427 59.7173H59.6566C58.484 59.7173 57.5334 60.6681 57.5334 61.8405C57.5334 63.013 58.484 63.9638 59.6566 63.9638H82.4427C83.6154 63.9638 84.566 63.013 84.566 61.8405C84.566 60.6681 83.6154 59.7173 82.4427 59.7173Z" fill="#B4B8D7" fill-opacity="0.6"/>
<path d="M39.2084 56.6879C39.1654 56.685 35.2795 56.8469 34.2299 52.643C35.648 51.5268 36.8381 49.9758 37.6884 48.1234C37.7513 48.1297 37.8142 48.1375 37.8767 48.1375C38.4556 48.1373 39.0162 47.8736 39.3845 47.4004C41.1675 45.1104 42.0947 42.1369 41.9955 39.0277C41.7892 32.5816 37.3047 27.5 31.7783 27.4402C31.6271 27.4342 31.4925 27.4381 31.3838 27.442C31.3812 27.442 31.3787 27.4422 31.3759 27.4422C30.0351 26.8611 28.6226 26.5889 27.167 26.6367C24.0552 26.7361 21.2002 28.2775 19.1283 30.9771C17.1429 33.5637 16.1115 36.9293 16.2242 40.4551C16.2433 41.0516 16.2906 41.6016 16.3664 42.1227C16.572 43.6238 16.9861 45.0629 17.597 46.3994C17.8906 47.0418 18.5148 47.4701 19.2203 47.5123C19.4123 47.5246 19.6007 47.5049 19.782 47.4613C20.6466 49.6045 21.9531 51.3879 23.5332 52.633C22.5045 56.8299 18.5957 56.6856 18.5529 56.6883C14.3754 56.825 11.0185 60.2635 11.0185 64.4734V72.2106C11.0185 73.266 11.874 74.1215 12.9295 74.1215H44.8316C45.8871 74.1215 46.7425 73.266 46.7425 72.2106V64.4734C46.7427 60.2631 43.3857 56.8246 39.2084 56.6879ZM20.1763 41.7631C20.1675 41.7047 20.1591 41.6459 20.1509 41.5871C20.0939 41.1941 20.059 40.7834 20.0445 40.332C19.9597 37.6871 20.7111 35.1912 22.1603 33.3037C23.522 31.5293 25.3441 30.5182 27.2896 30.4559C27.3539 30.4537 28.881 30.3328 30.1656 31.092C30.4345 31.251 30.764 31.2984 31.0748 31.2908C31.114 31.2898 31.6867 31.2609 31.7156 31.2611C35.1394 31.2836 38.0379 34.8223 38.1761 39.1494C38.1922 39.6451 38.1722 40.135 38.1183 40.6141C36.8537 38.4434 34.9752 36.7625 32.7396 35.8225C32.2591 35.6207 31.717 35.6236 31.2388 35.8309C30.7605 36.0383 30.3879 36.4322 30.207 36.9211C30.0595 37.3199 29.8802 37.7086 29.6746 38.0768C29.1728 38.974 28.1463 39.5031 26.9957 39.467C26.7668 39.4592 26.5355 39.4588 26.308 39.466C25.1883 39.502 24.0963 39.7154 23.0547 40.1035C22.0142 40.4965 21.0472 41.0543 20.1763 41.7631ZM22.8394 44.5367C23.3236 44.1789 23.8556 43.9143 24.3972 43.6822C25.3847 43.2588 26.7191 43.2818 26.8634 43.2869C29.325 43.3705 31.572 42.2188 32.8224 40.2566C33.7974 41.0037 34.6027 42.01 35.1644 43.2023C34.5726 47.4908 31.9037 50.7533 28.8752 50.7533C26.1732 50.7533 23.7482 48.1977 22.8394 44.5367ZM27.0384 54.3598C27.6365 54.5008 28.2504 54.575 28.8752 54.575C29.5058 54.575 30.1234 54.5002 30.7234 54.3604C31.3392 56.3268 32.6328 57.9955 34.3277 59.0955C33.5125 61.3389 31.3556 62.9117 28.8808 62.9117C26.406 62.9117 24.2492 61.3389 23.4338 59.0953C25.1291 57.9951 26.4226 56.3264 27.0384 54.3598ZM14.8406 70.2994V64.4733C14.8406 62.284 16.6216 60.5031 18.8109 60.5031C18.8547 60.5031 19.5517 60.4631 19.8504 60.4229C21.2109 64.1342 24.7834 66.7336 28.8806 66.7336C32.9779 66.7336 36.5504 64.1342 37.9109 60.4229C38.2099 60.4631 38.9064 60.5031 38.9502 60.5031C41.1396 60.5031 42.9205 62.2842 42.9205 64.4733V70.2994H14.8406Z" fill="#B4B8D7" fill-opacity="0.6"/>
</svg>
