<svg width="16" height="16" viewBox="0 0 16 16" fill="none" xmlns="http://www.w3.org/2000/svg">
<path fill-rule="evenodd" clip-rule="evenodd" d="M8.00282 1.3335C6.04681 1.3335 4.46114 2.92592 4.46114 4.89028C4.46114 6.85463 6.04681 8.44706 8.00282 8.44706C9.95884 8.44706 11.5445 6.85463 11.5445 4.89028C11.5445 2.92592 9.95884 1.3335 8.00282 1.3335ZM8.00282 2.29861C9.42808 2.29861 10.5835 3.45894 10.5835 4.89028C10.5835 6.32162 9.42808 7.48195 8.00282 7.48195C6.57756 7.48195 5.42216 6.32162 5.42216 4.89028C5.42216 3.45894 6.57756 2.29861 8.00282 2.29861ZM6.55333 9.88075C6.03485 9.91674 5.51077 9.99076 4.99382 10.1015C3.99608 10.3071 3.19786 10.7177 2.85812 11.4001C2.72998 11.6669 2.66555 11.9527 2.66664 12.242C2.66626 12.5292 2.73016 12.8153 2.8537 13.077C3.17992 13.7515 3.88516 14.1333 4.83745 14.3449L5.00804 14.3805C5.51095 14.4939 6.03519 14.5703 6.56294 14.6062C6.60788 14.6194 6.71501 14.6316 6.83193 14.6376L6.9281 14.6412C6.97755 14.6423 7.03368 14.6426 7.1173 14.6426C7.87586 14.6844 8.66224 14.6722 9.44497 14.6056C9.86209 14.577 10.282 14.5225 10.6984 14.4426L11.01 14.3779C12.0383 14.175 12.8083 13.7892 13.1457 13.0778C13.3958 12.5496 13.3958 11.9366 13.1458 11.4087C12.8093 10.699 12.0491 10.3164 11.0022 10.1008C10.5915 10.0131 10.1741 9.94819 9.75374 9.90675L9.44643 9.88075C8.48391 9.79584 7.51584 9.79584 6.55333 9.88075ZM9.36233 10.8422L9.37078 10.8428C9.85321 10.8768 10.3327 10.9445 10.8057 11.0455C11.5833 11.2057 12.1111 11.4713 12.278 11.8234C12.4037 12.0889 12.4037 12.3974 12.2779 12.6631C12.1219 12.9921 11.648 13.2463 10.9629 13.4016L10.813 13.4333C10.3306 13.541 9.85271 13.6103 9.37165 13.6433C8.62524 13.7068 7.88325 13.7182 7.14313 13.6782L6.88073 13.6737C6.80788 13.67 6.74649 13.663 6.6896 13.6516C6.2391 13.6176 5.83373 13.5638 5.44013 13.4857L5.20512 13.436C4.42509 13.2831 3.89272 13.0164 3.72011 12.6595C3.65971 12.5315 3.62745 12.387 3.62764 12.2408C3.6271 12.0954 3.65894 11.9542 3.72074 11.8254C3.88857 11.4884 4.45275 11.1982 5.19066 11.0462C5.66711 10.9441 6.14636 10.8764 6.62858 10.8429C7.54397 10.7622 8.45577 10.7622 9.36233 10.8422Z" fill="#B4B8D7"/>
</svg>
