<svg width="16" height="16" viewBox="0 0 16 16" fill="none" xmlns="http://www.w3.org/2000/svg">
<path fill-rule="evenodd" clip-rule="evenodd" d="M10.8896 1.3335H5.11028C2.84524 1.3335 1.33362 2.95523 1.33362 5.2775V10.7228C1.33362 13.0473 2.8412 14.6668 5.11028 14.6668H10.889C13.1587 14.6668 14.667 13.0473 14.667 10.7228V5.2775C14.667 2.95317 13.1588 1.3335 10.8896 1.3335ZM5.11028 2.3335H10.8896C12.59 2.3335 13.667 3.49014 13.667 5.2775V10.7228C13.667 12.5103 12.5899 13.6668 10.889 13.6668H5.11028C3.41012 13.6668 2.33362 12.5104 2.33362 10.7228V5.2775C2.33362 3.49241 3.41384 2.3335 5.11028 2.3335ZM5.89355 6.2655C4.93612 6.2655 4.15955 7.04265 4.15955 8.00017C4.15955 8.95769 4.93612 9.73484 5.89355 9.73484C6.67766 9.73484 7.34033 9.21426 7.55503 8.50015L8.95442 8.5001V9.23449L8.95898 9.30234C8.99209 9.54639 9.20129 9.73449 9.45442 9.73449C9.73056 9.73449 9.95442 9.51064 9.95442 9.23449V8.50006L10.84 8.50003L10.8402 9.23483L10.8448 9.30267C10.8779 9.54673 11.0871 9.73483 11.3402 9.73483C11.6164 9.73483 11.8402 9.51097 11.8402 9.23483V8.00016L11.8357 7.93231C11.8025 7.68826 11.5933 7.50016 11.3402 7.50016H9.47281C9.46671 7.49994 9.46058 7.49983 9.45442 7.49983C9.44826 7.49983 9.44213 7.49994 9.43603 7.50016H7.55502C7.34031 6.78606 6.67764 6.2655 5.89355 6.2655ZM5.89355 7.2655C6.29914 7.2655 6.62822 7.59471 6.62822 8.00017C6.62822 8.40563 6.29914 8.73484 5.89355 8.73484C5.48857 8.73484 5.15955 8.40557 5.15955 8.00017C5.15955 7.59477 5.48857 7.2655 5.89355 7.2655Z" fill="#B4B8D7"/>
</svg>
