<svg width="100" height="100" viewBox="0 0 100 100" fill="none" xmlns="http://www.w3.org/2000/svg">
<path d="M32.9486 28.5933C21.648 28.5933 12.4869 37.7543 12.4869 49.0549C12.4869 60.3555 21.648 69.5166 32.9486 69.5166C44.2492 69.5166 53.4103 60.3555 53.4103 49.0549C53.4103 37.7543 44.2492 28.5933 32.9486 28.5933ZM48.0917 41.3818H40.7174C40.0121 37.8479 38.9106 34.9916 37.7859 32.7879C42.2921 34.1326 45.9912 37.2573 48.0917 41.3818ZM38.064 49.0549C38.064 50.5772 37.95 51.9756 37.7933 53.3178H28.1045C27.9472 51.9756 27.833 50.577 27.833 49.0549C27.833 47.532 27.9453 46.1338 28.1011 44.7921H37.7967C37.9517 46.1338 38.064 47.5322 38.064 49.0549ZM32.4524 32.0534C32.6206 32.0485 32.7787 32.0035 32.9486 32.0035C33.1202 32.0035 33.279 32.0494 33.4497 32.0543C34.7294 34.0175 36.2856 37.1232 37.2279 41.3818H28.6698C29.6165 37.1085 31.1785 34.0043 32.4524 32.0534ZM28.1113 32.7879C26.9906 34.9869 25.8883 37.8464 25.1823 41.3818H17.8055C19.9062 37.2573 23.6053 34.1335 28.1113 32.7879ZM15.8972 49.0549C15.8972 47.5744 16.1462 46.1626 16.5025 44.7921H24.6644C24.522 46.1426 24.4229 47.5472 24.4229 49.0549C24.4229 50.5636 24.5246 51.9665 24.6693 53.3178H16.5025C16.1462 51.9473 15.8972 50.5354 15.8972 49.0549ZM17.8055 56.7281H25.1906C25.9034 60.2699 27.0064 63.1507 28.1064 65.3205C23.6027 63.9749 19.9054 60.8511 17.8055 56.7281ZM33.4439 66.0565C33.2758 66.0616 33.1185 66.1063 32.9486 66.1063C32.7787 66.1063 32.6214 66.0614 32.4524 66.0565C31.2302 64.1765 29.6383 61.0638 28.6742 56.7281H37.2234C36.2606 61.061 34.6704 64.1723 33.4439 66.0565ZM37.7925 65.3205C38.894 63.1486 39.9964 60.2701 40.7074 56.7281H48.0917C45.9918 60.8507 42.2951 63.9743 37.7925 65.3205ZM41.2288 53.3178C41.3728 51.9665 41.4743 50.5636 41.4743 49.0549C41.4743 47.5472 41.376 46.1426 41.2337 44.7921H49.3947C49.751 46.1626 50 47.5747 50 49.0549C50 50.5354 49.751 51.9473 49.3947 53.3178H41.2288Z" fill="#B4B8D7" fill-opacity="0.6"/>
<path d="M50 79.7476H15.8972V83.1578H50V79.7476Z" fill="#B4B8D7" fill-opacity="0.6"/>
<path d="M73.7413 55.1821L71.9755 61.77L75.2695 62.6529L77.0353 56.065L73.7413 55.1821Z" fill="#B4B8D7" fill-opacity="0.6"/>
<path d="M70.2097 68.3519L64.0318 91.4092L67.3258 92.2918L73.5037 69.2345L70.2097 68.3519Z" fill="#B4B8D7" fill-opacity="0.6"/>
<path d="M92.6867 10.8259L53.1581 0.23403C52.5669 0.0756655 51.973 0 51.3888 0C48.3773 0.000213142 45.6216 2.00993 44.8049 5.05702L41.2398 18.3626H5.66638C3.78306 18.3626 2.2561 19.8894 2.2561 21.7729V89.9785C2.2561 91.862 3.78306 93.3887 5.66638 93.3887H45.0553L68.8556 99.766C69.4469 99.9243 70.0403 100 70.6249 100C73.6364 100 76.3921 97.9901 77.2089 94.943L97.5098 19.1792C98.485 15.5408 96.3252 11.8008 92.6867 10.8259ZM5.66638 89.9785V21.7729H56.8205C58.7013 21.7729 60.2308 23.3029 60.2308 25.1832V86.5682C60.2308 88.4485 58.7013 89.9785 56.8205 89.9785H5.66638ZM94.2162 18.2966L73.9152 94.0604C73.5156 95.5498 72.1628 96.5899 70.6247 96.5899C70.3284 96.5899 70.0303 96.5503 69.738 96.4719L57.8462 93.2854C61.1222 92.7877 63.6409 89.9838 63.6409 86.5684V59.5326L65.3876 60.0006L67.1535 53.4124L63.8589 52.5298L63.6409 53.3448V26.244C64.704 26.529 65.9313 26.8579 67.1211 27.1767L71.1542 40.3621L73.9774 41.1188L73.7102 28.9422C75.5643 29.4392 77.4576 29.9463 78.6981 30.2788L80.8903 34.1446L82.7728 34.6488L82.449 29.2664L85.4206 24.7667L83.5382 24.2624L79.7074 26.5143C78.466 26.182 76.5735 25.6747 74.7185 25.1777L81.0386 14.7665L78.2154 14.0098L68.1301 23.4124C66.1468 22.881 63.983 22.3009 62.8107 21.9871C61.6619 19.8399 59.4247 18.3629 56.8203 18.3629H44.7695L48.0981 5.94006C48.4978 4.45084 49.8508 3.4107 51.3886 3.41049C51.6849 3.41049 51.9831 3.45014 52.2753 3.52857L91.804 14.1205C92.6841 14.3562 93.4192 14.9206 93.8747 15.7094C94.3304 16.4981 94.4517 17.4169 94.2162 18.2966Z" fill="#B4B8D7" fill-opacity="0.6"/>
<path d="M72.8537 46.1686L71.9813 49.4653L75.222 50.3229L76.0943 47.0261L72.8537 46.1686Z" fill="#B4B8D7" fill-opacity="0.6"/>
<path d="M79.3262 47.888L78.4539 51.1846L81.6945 52.0421L82.5668 48.7456L79.3262 47.888Z" fill="#B4B8D7" fill-opacity="0.6"/>
<path d="M66.3815 44.4535L65.5092 47.75L68.7499 48.6075L69.6222 45.311L66.3815 44.4535Z" fill="#B4B8D7" fill-opacity="0.6"/>
</svg>
