<svg width="20" height="20" viewBox="0 0 20 20" fill="none" xmlns="http://www.w3.org/2000/svg">
    <path
        d="M14.2067 0H5.79137C4.98658 0 4.33643 0.652675 4.33643 1.45747V18.5444C4.33643 19.3467 4.98658 20 5.79137 20H14.2067C15.0102 20 15.6629 19.3473 15.6629 18.5444V1.45747C15.6623 0.652675 15.0102 0 14.2067 0ZM14.5716 16.2045H5.42779V2.45858H14.5716V16.2045ZM11.9501 1.47893H8.04859V1.0535H11.9508L11.9501 1.47893ZM13.6197 1.28452C13.6197 1.4903 13.4518 1.65694 13.2466 1.65694C13.0409 1.65694 12.8736 1.48966 12.8736 1.28452C12.8736 1.07938 13.0409 0.912104 13.2466 0.912104C13.4524 0.911472 13.6197 1.07874 13.6197 1.28452ZM11.7753 18.4472H8.22218V17.354H11.7753V18.4472Z"
        fill="#0447FF" />
</svg>
