<svg width="16" height="16" viewBox="0 0 16 16" fill="none" xmlns="http://www.w3.org/2000/svg">
<path fill-rule="evenodd" clip-rule="evenodd" d="M8.41069 1.3335H7.58733C7.12362 1.3335 6.67903 1.51453 6.35193 1.83655C6.06201 2.12196 5.88465 2.49827 5.85046 2.8987L5.84479 3.02803C5.83846 3.44918 5.49824 3.77773 5.08063 3.77768C4.98593 3.77669 4.88757 3.75508 4.79702 3.71436L4.70819 3.66797C3.88766 3.20694 2.82082 3.48934 2.33941 4.30793L1.90656 5.0048C1.44629 5.78715 1.6733 6.77 2.41628 7.27622L2.51961 7.34117C2.77429 7.48575 2.91987 7.7328 2.91987 8.00016C2.91987 8.24604 2.79657 8.47595 2.59093 8.61539L2.52073 8.65847C1.75097 9.09432 1.44767 10.0563 1.8346 10.8565L1.89115 10.963L2.31604 11.6818C2.53689 12.0724 2.91533 12.3666 3.36293 12.4912C3.75965 12.6017 4.18303 12.5712 4.55837 12.4058L4.67706 12.3477C4.87682 12.2346 5.08319 12.2074 5.27688 12.2582C5.47057 12.309 5.63553 12.4335 5.73509 12.604C5.78998 12.6947 5.82221 12.7883 5.83371 12.8853L5.83937 12.9837C5.83839 13.8997 6.62142 14.6668 7.58733 14.6668H8.41089C9.32295 14.6668 10.0799 13.9804 10.154 13.0944L10.1594 12.98C10.1589 12.7587 10.2388 12.5684 10.3818 12.4283C10.5248 12.2882 10.719 12.2099 10.9213 12.2109C11.0143 12.2134 11.1164 12.2362 11.211 12.2777L11.3018 12.3235C12.0673 12.7564 13.0705 12.534 13.5872 11.8061L13.6535 11.7048L14.0932 10.9871C14.33 10.589 14.3941 10.1213 14.2746 9.68216C14.1686 9.29291 13.9257 8.95331 13.5895 8.72289L13.4782 8.65302C13.2848 8.54345 13.1573 8.38069 13.1053 8.18974C13.0533 7.9988 13.0812 7.79544 13.1827 7.62469C13.2389 7.52855 13.3137 7.44854 13.4034 7.38728L13.5749 7.28168C14.2695 6.81967 14.5296 5.91029 14.164 5.14578L14.1261 5.07133C14.1179 5.05191 14.1084 5.03298 14.0976 5.01466L13.6889 4.31968C13.234 3.54628 12.2506 3.24615 11.4306 3.62383L11.3214 3.67909C11.1254 3.79141 10.9185 3.81981 10.7237 3.77026C10.529 3.7207 10.3623 3.59728 10.2605 3.42719C10.2082 3.34094 10.176 3.24736 10.1645 3.1504L10.1589 3.05194C10.1732 2.63328 9.99494 2.1847 9.66547 1.85264C9.336 1.52057 8.88337 1.33331 8.41069 1.3335ZM7.58734 2.29865H8.4109C8.61754 2.29857 8.81522 2.38036 8.95911 2.52538C9.103 2.6704 9.18085 2.86631 9.17492 3.06848L9.18367 3.23652C9.21346 3.49339 9.29041 3.71685 9.41202 3.9176C9.64484 4.30659 10.0282 4.59047 10.4762 4.70443C10.9242 4.8184 11.4 4.7531 11.7989 4.52293L11.8676 4.4886L11.9416 4.45956C12.2672 4.35251 12.6509 4.488 12.8353 4.80155L13.2252 5.465L13.2336 5.48369L13.2808 5.57272C13.4385 5.90352 13.3067 6.32196 12.9653 6.51758L12.8582 6.58371C12.6309 6.73838 12.4566 6.92493 12.3297 7.1419C12.098 7.53154 12.0339 7.99926 12.1534 8.43842C12.2621 8.83766 12.5144 9.18334 12.8615 9.41317L13.043 9.5256C13.171 9.61393 13.2766 9.7616 13.3227 9.93084C13.3747 10.1218 13.3468 10.3251 13.2453 10.4959L12.8157 11.1973L12.7674 11.2713C12.5686 11.5507 12.1764 11.6545 11.8458 11.5123L11.6351 11.4068C11.4002 11.3033 11.1704 11.252 10.9368 11.2459C10.4609 11.2435 10.0141 11.4236 9.6852 11.7458C9.35628 12.0681 9.17248 12.5058 9.17473 12.9615L9.17095 13.0343C9.13988 13.4017 8.8091 13.7017 8.4109 13.7017H7.58734C7.19361 13.7017 6.86946 13.4098 6.82799 13.0349L6.81456 12.7991C6.78477 12.5423 6.70782 12.3188 6.58621 12.1181C6.36015 11.7308 5.97903 11.4432 5.53154 11.3259C5.08405 11.2085 4.60726 11.2712 4.20716 11.4999L4.13468 11.5347C3.99042 11.5978 3.8055 11.6111 3.63224 11.5629C3.43676 11.5084 3.27148 11.3799 3.17297 11.2058L2.75348 10.4968L2.71595 10.4257C2.55704 10.0962 2.68899 9.67768 3.03089 9.48389L3.13476 9.41991C3.62271 9.08952 3.90499 8.56319 3.90499 8.00016C3.90499 7.42879 3.6146 6.89793 3.13593 6.58083L2.96212 6.47299C2.655 6.26326 2.55581 5.83379 2.75415 5.49653L3.18701 4.79966C3.40323 4.43226 3.86916 4.30893 4.23456 4.51406L4.3628 4.58033C4.60233 4.68878 4.83721 4.74039 5.07547 4.74281C5.99976 4.74293 6.75555 4.04741 6.82453 3.16116L6.83348 2.9579C6.84701 2.8051 6.92413 2.64147 7.05018 2.51737C7.1924 2.37737 7.38571 2.29865 7.58734 2.29865ZM8.00212 5.82138C6.77393 5.82138 5.77828 6.79685 5.77828 8.00016C5.77828 9.20347 6.77393 10.1789 8.00212 10.1789C9.23031 10.1789 10.226 9.20347 10.226 8.00016C10.226 6.79685 9.23031 5.82138 8.00212 5.82138ZM8.00212 6.78653C8.68625 6.78653 9.24084 7.32989 9.24084 8.00016C9.24084 8.67043 8.68625 9.21379 8.00212 9.21379C7.31799 9.21379 6.7634 8.67043 6.7634 8.00016C6.7634 7.32989 7.31799 6.78653 8.00212 6.78653Z" fill="#B4B8D7"/>
</svg>
