<svg width="33" height="33" viewBox="0 0 33 33" fill="none" xmlns="http://www.w3.org/2000/svg">
<path d="M16.3638 2.3623C24.0958 2.3623 30.3638 8.63032 30.3638 16.3623C30.3638 24.0943 24.0958 30.3623 16.3638 30.3623C8.63178 30.3623 2.36377 24.0943 2.36377 16.3623C2.36377 8.63032 8.63178 2.3623 16.3638 2.3623ZM16.3638 4.1123C9.59828 4.1123 4.11377 9.59682 4.11377 16.3623C4.11377 23.1278 9.59828 28.6123 16.3638 28.6123C23.1293 28.6123 28.6138 23.1278 28.6138 16.3623C28.6138 9.59682 23.1293 4.1123 16.3638 4.1123ZM22.4075 11.8936C22.7492 12.2353 22.7492 12.7893 22.4075 13.131L14.7075 20.831C14.3658 21.1727 13.8118 21.1727 13.47 20.831L10.3201 17.681C9.97834 17.3393 9.97834 16.7853 10.3201 16.4436C10.6618 16.1019 11.2158 16.1019 11.5575 16.4436L14.0888 18.9749L21.17 11.8936C21.5118 11.5519 22.0658 11.5519 22.4075 11.8936Z" fill="#02C751"/>
</svg>
