<svg width="64" height="74" viewBox="0 0 64 74" fill="none" xmlns="http://www.w3.org/2000/svg">
<path fill-rule="evenodd" clip-rule="evenodd" d="M41.5568 0.376446C41.3988 0.348224 41.2361 0.333496 41.07 0.333496C40.9039 0.333496 40.7412 0.348224 40.5832 0.376446H17.6425C8.52239 0.376446 0.834473 7.77516 0.834473 16.7994V56.1684C0.834473 65.6928 8.1709 73.1708 17.6425 73.1708H46.9318C55.936 73.1708 63.3585 65.3167 63.3585 56.1684V22.4718C63.3585 21.7618 63.0838 21.0793 62.5921 20.5671L44.0168 1.22178C43.4982 0.681722 42.7818 0.376446 42.0331 0.376446H41.5568ZM38.32 5.8733L17.6425 5.87624C11.5138 5.87624 6.33447 10.8607 6.33447 16.7992V56.1682C6.33447 62.6783 11.2323 67.6706 17.6425 67.6706H46.9318C52.8267 67.6706 57.8585 62.3463 57.8585 56.1682L57.8574 25.9381L54.6435 25.9491C53.4208 25.9476 52.03 25.945 50.4838 25.9415C43.9927 25.9278 38.6967 20.8429 38.3392 14.4407L38.32 13.7498V5.8733ZM54.8473 20.4409L50.4959 20.4415C46.8059 20.4337 43.82 17.4406 43.82 13.7498V8.95686L54.8473 20.4409ZM27.9323 34.2724V51.716L27.9574 52.0892C28.1395 53.4315 29.2901 54.466 30.6823 54.466C32.2011 54.466 33.4323 53.2348 33.4323 51.716V34.2754L39.1417 40.0087L39.4496 40.2757C40.5245 41.0767 42.0525 40.9912 43.0308 40.0169C44.107 38.9453 44.1107 37.2041 43.039 36.1279L32.6782 25.7232C32.2589 25.2811 31.6943 24.9781 31.0608 24.8909C30.2345 24.7762 29.3659 25.0374 28.7317 25.6745L18.3257 36.1282L18.0602 36.4373C17.2638 37.5157 17.3561 39.0432 18.3346 40.0173L18.6437 40.2829C19.7221 41.0792 21.2496 40.9869 22.2237 40.0084L27.9323 34.2724Z" fill="#A6A6A6"/>
</svg>
