<svg width="25" height="25" viewBox="0 0 25 25" fill="none" xmlns="http://www.w3.org/2000/svg">
<path d="M20.7592 1.68774H7.5764C6.17296 1.68774 5.03124 2.8329 5.03124 4.24056V5.03095H4.23241C2.82897 5.03095 1.68726 6.1761 1.68726 7.58454V20.7598C1.68726 22.1674 2.82897 23.3126 4.23241 23.3126H17.4156C18.8236 23.3126 19.9688 22.1674 19.9688 20.7598V19.9694H20.7592C22.1672 19.9694 23.3128 18.8242 23.3128 17.4158V4.24048C23.3127 2.8329 22.1672 1.68774 20.7592 1.68774ZM18.4063 20.7597C18.4063 21.3059 17.9619 21.75 17.4156 21.75H4.23241C3.69069 21.75 3.24976 21.3059 3.24976 20.7597V7.58446C3.24976 7.03821 3.69077 6.59337 4.23241 6.59337H5.81249H17.4156C17.9619 6.59337 18.4063 7.03814 18.4063 7.58446V19.188V20.7597ZM21.7502 17.4157C21.7502 17.962 21.3058 18.4068 20.7591 18.4068H19.9687V7.58446C19.9687 6.1761 18.8236 5.03087 17.4155 5.03087H6.59366V4.24048C6.59366 3.69423 7.03468 3.25017 7.57632 3.25017H20.7591C21.3058 3.25017 21.7502 3.69423 21.7502 4.24048V17.4157Z" fill="#2F67FF"/>
</svg>
