<svg width="35" height="35" viewBox="0 0 35 35" fill="none" xmlns="http://www.w3.org/2000/svg">
<g clip-path="url(#clip0_116_1772)">
<path d="M17.4624 6.33362e-06C7.82493 -0.00812844 0.00799529 7.82087 -0.000115755 17.4865C-0.0082268 27.1521 7.79794 34.9919 17.4354 35C27.0715 34.9919 34.883 27.1643 34.8978 17.5C34.8978 7.83981 27.0944 0.00814111 17.4624 6.33362e-06ZM17.4354 32.0879C9.40236 32.0879 2.89008 25.5565 2.89008 17.5C2.89008 9.44352 9.40236 2.91219 17.4354 2.91219C25.4656 2.92032 31.9725 9.44625 31.9807 17.5C31.9807 25.5565 25.4684 32.0879 17.4354 32.0879Z" fill="#F7931A"/>
<path d="M22.149 16.6466C23.3159 15.9869 23.9466 14.6664 23.7292 13.3416C23.4591 11.2964 21.0281 10.5243 19.1103 10.3618V7.28711H17.2196V10.3347H15.9501V7.28711H14.0593V10.3347H10.2507V12.2987H11.6688C12.3036 12.2987 12.6142 12.4884 12.6142 13.003V21.4415C12.6142 22.1458 12.263 22.3626 11.8849 22.3626H10.4398V24.3672H14.1133V27.4826H16.0176V24.3672H17.287V27.4826H19.1373V24.3672H19.5425C23.432 24.3672 24.7286 22.4574 24.7286 19.8568C24.6975 18.3235 23.6373 17.0042 22.149 16.6466ZM15.95 12.4206H17.3005C18.2459 12.4206 20.1097 12.5832 20.1097 14.1273C20.1745 15.135 19.4466 16.0182 18.4485 16.1455H15.95V12.4206ZM18.0433 22.1729V22.1594H15.95V18.0959H18.381C18.9482 18.0959 21.0821 18.2855 21.0821 19.8025C21.0821 21.3196 20.0692 22.1729 18.0433 22.1729Z" fill="#F7931A"/>
</g>
<defs>
<clipPath id="clip0_116_1772">
<rect width="34.898" height="35" fill="white"/>
</clipPath>
</defs>
</svg>
