<svg width="16" height="18" viewBox="0 0 16 18" fill="none" xmlns="http://www.w3.org/2000/svg">
<path d="M15.1494 3.53813L11.7744 0.163134C11.6682 0.057841 11.5245 -0.000834774 11.375 8.97536e-06H2.375C1.44301 8.97536e-06 0.6875 0.755516 0.6875 1.68751V16.3125C0.6875 17.2445 1.44301 18 2.375 18H13.625C14.557 18 15.3125 17.2445 15.3125 16.3125V3.93751C15.3134 3.78799 15.2547 3.6443 15.1494 3.53813ZM14.1875 16.3125C14.1875 16.6232 13.9357 16.875 13.625 16.875H2.375C2.06432 16.875 1.8125 16.6232 1.8125 16.3125V1.68751C1.8125 1.37683 2.06432 1.12501 2.375 1.12501H10.8125V3.37501C10.8125 3.99632 11.3162 4.50001 11.9375 4.50001H14.1875V16.3125Z" fill="#777E90"/>
<path d="M13.0625 13.5H11.9375V14.625H13.0625V13.5Z" fill="#777E90"/>
<path d="M13.0625 7.875H2.9375V9H13.0625V7.875Z" fill="#777E90"/>
<path d="M13.0625 10.6875H2.9375V11.8125H13.0625V10.6875Z" fill="#777E90"/>
<path d="M10.8125 13.5H2.9375V14.625H10.8125V13.5Z" fill="#777E90"/>
</svg>
