<svg width="50" height="50" viewBox="0 0 50 50" fill="none" xmlns="http://www.w3.org/2000/svg">
<circle cx="25" cy="25" r="25" fill="#F7931A"/>
<g clip-path="url(#clip0_185_4485)">
<path fill-rule="evenodd" clip-rule="evenodd" d="M30.8188 22.7838C31.5488 21.835 32 20.6625 32 19.375C32 16.4875 29.805 14.1288 27 13.8138V10H24.5V13.75H22V10H19.5V13.75H18.25C17.56 13.75 17 14.3088 17 15V35C17 35.6912 17.56 36.25 18.25 36.25H19.5V40H22V36.25H24.5V40H27V36.25H28.875C32.6662 36.25 35.75 33.165 35.75 29.375C35.75 26.26 33.665 23.625 30.8188 22.7838ZM26.375 16.25C28.0975 16.25 29.5 17.6513 29.5 19.375C29.5 21.0987 28.0975 22.5 26.375 22.5H19.5V16.25H26.375ZM19.5 33.75H28.875C31.2875 33.75 33.25 31.7875 33.25 29.375C33.25 26.9625 31.2875 25 28.875 25H19.5V33.75Z" fill="white"/>
</g>
<defs>
<clipPath id="clip0_185_4485">
<rect width="18.75" height="30" fill="white" transform="translate(17 10)"/>
</clipPath>
</defs>
</svg>
