<svg width="20" height="20" viewBox="0 0 20 20" fill="none" xmlns="http://www.w3.org/2000/svg">
<path d="M19.9462 7.65878C19.7922 7.18455 19.3318 6.85853 18.6834 6.76431L13.5408 6.01699L11.2409 1.35704C10.9509 0.76937 10.4986 0.432373 9.99996 0.432373C9.50135 0.432373 9.04908 0.76941 8.75908 1.35704L6.45932 6.01695L1.31666 6.76431C0.668133 6.85853 0.207853 7.18451 0.0537486 7.65874C-0.100316 8.13296 0.0804287 8.66727 0.549655 9.12462L4.27088 12.7519L3.39239 17.8739C3.27688 18.5476 3.4731 18.9505 3.65802 19.1698C3.87435 19.4264 4.18994 19.5677 4.54667 19.5677C4.8164 19.5677 5.10359 19.4886 5.4002 19.3326L9.99999 16.9144L14.5998 19.3326C14.8964 19.4886 15.1836 19.5677 15.4534 19.5677H15.4534C15.8102 19.5677 16.1258 19.4263 16.3421 19.1698C16.527 18.9504 16.7233 18.5475 16.6077 17.8738L15.7291 12.7519L19.4503 9.12466C19.9195 8.66727 20.1003 8.133 19.9462 7.65878V7.65878ZM18.6323 8.28547L14.6905 12.1278C14.5523 12.2624 14.4893 12.4563 14.5219 12.6464L15.4527 18.0719C15.4826 18.2466 15.4674 18.3514 15.4533 18.3957C15.4179 18.3957 15.3174 18.3858 15.1452 18.2953L10.2727 15.7337C10.1873 15.6888 10.0937 15.6664 10 15.6664C9.9064 15.6664 9.81273 15.6888 9.72737 15.7337L4.85488 18.2953C4.68284 18.3858 4.58233 18.3957 4.54694 18.3957C4.53276 18.3514 4.51757 18.2466 4.54753 18.0719L5.47809 12.6464C5.51067 12.4563 5.44766 12.2623 5.30957 12.1277L1.36771 8.28539C1.2406 8.16148 1.19134 8.06773 1.17681 8.02359C1.21451 7.99644 1.30947 7.94952 1.48522 7.92398L6.9328 7.13232C7.12366 7.10459 7.28862 6.9847 7.37398 6.81177L9.81011 1.87556C9.88863 1.71642 9.96257 1.6406 10.0001 1.61309C10.0376 1.6406 10.1116 1.71642 10.1901 1.8756L12.6262 6.81177C12.7116 6.9847 12.8766 7.10459 13.0674 7.13232L18.5149 7.92398C18.6906 7.94948 18.7856 7.9964 18.8233 8.02359C18.8087 8.06777 18.7594 8.16156 18.6323 8.28547Z" fill="#777E90"/>
</svg>
