<svg width="20" height="20" viewBox="0 0 20 20" fill="none" xmlns="http://www.w3.org/2000/svg">
<path d="M4.07918 2.30469H3.86719V0.78125C3.86719 0.349766 3.51742 0 3.08594 0C2.65445 0 2.30469 0.349766 2.30469 0.78125V2.30469H2.0927C0.936133 2.30469 0 3.24062 0 4.39738V6.38387C0 7.54043 0.935938 8.47656 2.0927 8.47656H2.30469V19.2188C2.30469 19.6502 2.65445 20 3.08594 20C3.51742 20 3.86719 19.6502 3.86719 19.2188V8.47656C3.96332 8.46043 4.82422 8.5984 5.55891 7.86363C5.95418 7.4684 6.17188 6.94285 6.17188 6.38387V4.39738C6.17188 3.24082 5.23594 2.30469 4.07918 2.30469ZM4.60938 6.38387C4.60938 6.67688 4.37223 6.91406 4.07918 6.91406H2.0927C1.79969 6.91406 1.5625 6.67691 1.5625 6.38387V4.39738C1.5625 4.10437 1.79965 3.86719 2.0927 3.86719H4.07918C4.37219 3.86719 4.60938 4.10434 4.60938 4.39738V6.38387ZM17.9073 4.60938H17.6953V0.78125C17.6953 0.349766 17.3455 0 16.9141 0C16.4826 0 16.1328 0.349766 16.1328 0.78125V4.60938H15.9208C14.754 4.60938 13.8281 5.55746 13.8281 6.70207V8.68855C13.8281 9.84512 14.7641 10.7812 15.9208 10.7812H16.1328V19.2188C16.1328 19.6502 16.4826 20 16.9141 20C17.3455 20 17.6953 19.6502 17.6953 19.2188V10.7812H17.9073C19.0639 10.7812 20 9.84531 20 8.68855V6.70207C20 5.54551 19.0641 4.60938 17.9073 4.60938ZM18.4375 8.68855C18.4375 8.98156 18.2004 9.21875 17.9073 9.21875H15.9208C15.6278 9.21875 15.3906 8.9816 15.3906 8.68855V6.70207C15.3906 6.40934 15.6278 6.17188 15.9208 6.17188H17.9073C18.2003 6.17188 18.4375 6.40902 18.4375 6.70207V8.68855ZM10.9932 11.5234H10.7812V0.78125C10.7812 0.349766 10.4315 0 10 0C9.56852 0 9.21875 0.349766 9.21875 0.78125V11.5234H9.00676C7.8502 11.5234 6.91406 12.4594 6.91406 13.6161V15.6026C6.91406 16.7592 7.85 17.6953 9.00676 17.6953H9.21875V19.2188C9.21875 19.6502 9.56852 20 10 20C10.4315 20 10.7812 19.6502 10.7812 19.2188V17.6953H10.9932C12.16 17.6953 13.0859 16.7472 13.0859 15.6026V13.6161C13.0859 12.4596 12.15 11.5234 10.9932 11.5234ZM11.5234 15.6026C11.5234 15.8954 11.2863 16.1328 10.9932 16.1328H9.00676C8.71375 16.1328 8.47656 15.8957 8.47656 15.6026V13.6161C8.47656 13.3231 8.71371 13.0859 9.00676 13.0859H10.9932C11.2863 13.0859 11.5234 13.3231 11.5234 13.6161V15.6026Z" fill="#777E90"/>
</svg>
