<svg width="20" height="20" viewBox="0 0 20 20" fill="none" xmlns="http://www.w3.org/2000/svg">
<g clip-path="url(#clip0_13_1680)">
<path d="M19.9422 1.1302C19.8421 0.917968 19.6285 0.782593 19.3939 0.782593H0.606194C0.37157 0.782593 0.15804 0.917968 0.057903 1.1302C-0.0421536 1.34244 -0.010795 1.59331 0.138482 1.77435L7.36074 10.5341V18.6113C7.36074 18.8211 7.46912 19.0158 7.64725 19.1264C7.74489 19.1869 7.85569 19.2175 7.9669 19.2175C8.05879 19.2175 8.15101 19.1966 8.23604 19.1545L12.2939 17.1432C12.5001 17.0411 12.6305 16.831 12.6308 16.6009L12.6388 10.5343L19.8614 1.77427C20.0108 1.59331 20.0422 1.34236 19.9422 1.1302ZM11.5653 9.93074C11.476 10.039 11.427 10.1751 11.4269 10.3155L11.4191 16.2238L8.57314 17.6344V10.3163C8.57314 10.1756 8.52424 10.0393 8.43469 9.93074L1.89157 1.99483H18.1084L11.5653 9.93074Z" fill="#23262F"/>
</g>
<defs>
<clipPath id="clip0_13_1680">
<rect width="20" height="20" fill="white"/>
</clipPath>
</defs>
</svg>
