<svg width="20" height="20" viewBox="0 0 20 20" fill="none" xmlns="http://www.w3.org/2000/svg">
<path fill-rule="evenodd" clip-rule="evenodd" d="M6.34568 0.833313H3.56109C2.05331 0.833313 0.833328 2.06389 0.833328 3.5792V6.38797C0.833328 7.90267 2.05357 9.13386 3.56109 9.13386H6.34568C7.8532 9.13386 9.07345 7.90267 9.07345 6.38797V3.5792C9.07345 2.06389 7.85346 0.833313 6.34568 0.833313ZM3.56109 2.11238H6.34568C7.14457 2.11238 7.79438 2.76784 7.79438 3.57921V6.38798C7.79438 7.19881 7.14422 7.8548 6.34568 7.8548H3.56109C2.76255 7.8548 2.1124 7.19881 2.1124 6.38798V3.57921C2.1124 2.76784 2.76221 2.11238 3.56109 2.11238ZM16.4398 0.833313H13.6543C12.1465 0.833313 10.9265 2.06389 10.9265 3.5792V6.38797C10.9265 7.90267 12.1468 9.13386 13.6543 9.13386H16.4398C17.9466 9.13386 19.1667 7.90249 19.1667 6.38797V3.5792C19.1667 2.06406 17.9469 0.833313 16.4398 0.833313ZM13.6543 2.11238H16.4398C17.2379 2.11238 17.8876 2.76793 17.8876 3.57921V6.38798C17.8876 7.19871 17.2375 7.8548 16.4398 7.8548H13.6543C12.8558 7.8548 12.2056 7.19881 12.2056 6.38798V3.57921C12.2056 2.76784 12.8554 2.11238 13.6543 2.11238ZM3.56109 10.8661H6.34568C7.85364 10.8661 9.07345 12.0968 9.07345 13.6129V16.4208C9.07345 17.9361 7.85346 19.1666 6.34568 19.1666H3.56109C2.05331 19.1666 0.833328 17.9361 0.833328 16.4208V13.6129C0.833328 12.0968 2.05313 10.8661 3.56109 10.8661ZM6.34568 12.1452H3.56109C2.76212 12.1452 2.1124 12.8007 2.1124 13.6129V16.4208C2.1124 17.2321 2.76221 17.8876 3.56109 17.8876H6.34568C7.14457 17.8876 7.79438 17.2321 7.79438 16.4208V13.6129C7.79438 12.8007 7.14466 12.1452 6.34568 12.1452ZM16.4398 10.8661H13.6543C12.1463 10.8661 10.9265 12.0968 10.9265 13.6129V16.4208C10.9265 17.9361 12.1465 19.1666 13.6543 19.1666H16.4398C17.9469 19.1666 19.1667 17.9359 19.1667 16.4208V13.6129C19.1667 12.097 17.947 10.8661 16.4398 10.8661ZM13.6543 12.1452H16.4398C17.238 12.1452 17.8876 12.8008 17.8876 13.6129V16.4208C17.8876 17.232 17.2379 17.8876 16.4398 17.8876H13.6543C12.8554 17.8876 12.2056 17.2321 12.2056 16.4208V13.6129C12.2056 12.8007 12.8553 12.1452 13.6543 12.1452Z" fill="#777E90"/>
</svg>
