<svg width="25" height="25" viewBox="0 0 25 25" fill="none" xmlns="http://www.w3.org/2000/svg">
<g clip-path="url(#clip0_217_4326)">
<path d="M13.1143 14.8613C12.7637 14.8613 12.4795 15.1455 12.4795 15.4961C12.4792 17.1392 11.147 18.4709 9.50391 18.4707C7.86079 18.4704 6.529 17.1382 6.5293 15.4951C6.52959 13.8522 7.86148 12.5205 9.5044 12.5205C9.85498 12.5205 10.1392 12.2363 10.1392 11.8857C10.1392 11.5352 9.85498 11.251 9.5044 11.251C7.16055 11.2526 5.26089 13.1522 5.25928 15.4961C5.25928 17.8405 7.15977 19.741 9.50415 19.741C11.8485 19.741 13.749 17.8405 13.749 15.4961C13.749 15.1455 13.4648 14.8613 13.1143 14.8613Z" fill="#777E90"/>
<path d="M18.1572 16.9559C18.0967 16.6106 17.7677 16.3798 17.4224 16.4403L16.0938 16.6732C15.8507 16.7158 15.6544 16.8954 15.5903 17.1337C15.4487 17.6595 15.2391 18.1645 14.9668 18.6361C14.8427 18.8504 14.8545 19.1173 14.9971 19.3197L15.7725 20.4247C15.881 20.5786 15.8628 20.7883 15.7295 20.9213L14.9326 21.7182C14.7998 21.8514 14.5904 21.8697 14.4365 21.7616L13.3315 20.9862C13.1291 20.8436 12.8622 20.8318 12.648 20.9559C12.1764 21.2283 11.6713 21.4379 11.1455 21.5795C10.9072 21.6435 10.7276 21.8399 10.6851 22.0829L10.4492 23.41C10.4169 23.5954 10.256 23.7306 10.0679 23.7304H8.94043C8.75235 23.7306 8.59141 23.5954 8.55908 23.41L8.32618 22.0819C8.2836 21.8389 8.10401 21.6426 7.86573 21.5785C7.3398 21.4369 6.83457 21.2272 6.3628 20.955C6.14854 20.8308 5.88164 20.8427 5.6792 20.9852L4.57617 21.7601C4.42227 21.8686 4.2126 21.8505 4.07959 21.7172L3.28272 20.9203C3.14971 20.7874 3.1314 20.5782 3.23926 20.4242L4.01465 19.3192C4.15718 19.1168 4.16905 18.8499 4.04492 18.6356C3.77251 18.1641 3.56289 17.659 3.42139 17.1332C3.35733 16.8949 3.16099 16.7153 2.91797 16.6727L1.58985 16.4398C1.40488 16.4076 1.26983 16.2472 1.26953 16.0595V14.932C1.26934 14.7439 1.40454 14.583 1.58985 14.5507L2.91797 14.3178C3.16099 14.2752 3.35733 14.0956 3.42139 13.8573C3.5628 13.3309 3.77241 12.8254 4.04492 12.3534C4.16905 12.1391 4.15718 11.8722 4.01465 11.6698L3.23975 10.5682C3.13125 10.4143 3.14942 10.2047 3.28272 10.0717L4.08008 9.27429C4.21299 9.14124 4.42237 9.12312 4.57617 9.23133L5.68116 10.0067C5.8836 10.1493 6.15049 10.1611 6.36475 10.037C6.83648 9.76468 7.3417 9.55506 7.86768 9.41345C8.10596 9.34939 8.28555 9.15305 8.32813 8.91004L8.56104 7.58191C8.62159 7.2366 8.39073 6.90759 8.04541 6.84705C7.7001 6.7865 7.3711 7.01736 7.31055 7.36267L7.14551 8.30505C6.7835 8.42463 6.43111 8.57156 6.09131 8.74451L5.30762 8.1947C4.64922 7.73142 3.75288 7.80955 3.18457 8.37976L2.38477 9.1742C1.81509 9.7428 1.73721 10.6388 2.2002 11.2972L2.75 12.0809C2.577 12.4208 2.43008 12.7734 2.31055 13.1356L1.36817 13.3007C0.576271 13.4397 -0.000975201 14.128 1.36139e-06 14.932V16.0595C-0.00102403 16.8642 0.577296 17.5531 1.37012 17.6913L2.3125 17.8568C2.43203 18.2188 2.57896 18.5713 2.75196 18.911L2.2002 19.6947C1.73736 20.3532 1.81543 21.2493 2.38526 21.8178L3.18262 22.6146C3.75113 23.1845 4.64732 23.2624 5.30567 22.7992L6.08692 22.2494C6.42671 22.4224 6.7791 22.5692 7.14112 22.6889L7.30616 23.6312C7.44522 24.4244 8.13516 25.0022 8.94043 24.9999H10.0679C10.8729 25.0009 11.5617 24.4223 11.6997 23.6293L11.8652 22.6869C12.2273 22.5673 12.5797 22.4204 12.9194 22.2474L13.7036 22.7973C14.3621 23.2603 15.2583 23.1822 15.8267 22.6122L16.624 21.8148C17.1939 21.2463 17.2719 20.3503 16.8091 19.6918L16.2598 18.9105C16.4327 18.5707 16.5796 18.2183 16.6992 17.8563L17.6416 17.6908C17.9869 17.6303 18.2178 17.3013 18.1572 16.9559Z" fill="#777E90"/>
<path d="M23.8086 5.76172L23.1445 5.64551C23.0616 5.40605 22.9637 5.17202 22.8516 4.94482L23.2422 4.39453C23.6446 3.82227 23.5768 3.04341 23.0816 2.54932L22.4527 1.91895C21.9583 1.42266 21.1783 1.35459 20.6055 1.75781L20.0532 2.14502C19.826 2.03281 19.592 1.93496 19.3526 1.85205L19.2383 1.19092C19.1181 0.501564 18.5191 -0.00112117 17.8193 1.87799e-06H16.9312C16.2315 -0.000877028 15.6327 0.502052 15.5127 1.19141L15.396 1.85547C15.1566 1.93838 14.9225 2.03623 14.6953 2.14844L14.1431 1.75781C13.5708 1.35537 12.7919 1.42319 12.2979 1.91846L11.6699 2.54736C11.1736 3.0417 11.1056 3.82173 11.5088 4.39453L11.896 4.94678C11.7838 5.17397 11.6859 5.40801 11.603 5.64746L10.9414 5.76172C10.2522 5.88193 9.74961 6.48062 9.75049 7.18018V8.06836C9.74912 8.76826 10.2519 9.36753 10.9414 9.48779L11.605 9.604C11.6879 9.84346 11.7857 10.0775 11.898 10.3047L11.5103 10.8569C11.1078 11.429 11.1752 12.2077 11.6699 12.7021L12.2979 13.3301C12.792 13.8256 13.5712 13.8935 14.1436 13.4907L14.6973 13.1035C14.9245 13.2157 15.1585 13.3135 15.398 13.3965L15.5147 14.0605C15.6349 14.7497 16.2336 15.2523 16.9331 15.2515H17.8213C18.5211 15.2515 19.1192 14.7477 19.2383 14.0581L19.3545 13.3945C19.594 13.3116 19.828 13.2138 20.0552 13.1016L20.6055 13.4912C21.1782 13.8946 21.9584 13.8266 22.4527 13.3301L23.0811 12.7017C23.576 12.2077 23.644 11.4292 23.2422 10.8569L22.854 10.3027C22.9662 10.0755 23.064 9.8415 23.147 9.60205L23.8111 9.48535C24.4987 9.36445 25.0001 8.76704 25 8.06885V7.18066C25.0011 6.48076 24.4982 5.88174 23.8086 5.76172ZM23.7305 8.07031C23.7305 8.15317 23.671 8.22402 23.5894 8.23828L22.5425 8.42187C22.2995 8.46445 22.1031 8.64404 22.0391 8.88232C21.9305 9.28545 21.7698 9.67266 21.561 10.0342C21.4369 10.2484 21.4487 10.5153 21.5913 10.7178L22.2022 11.5889C22.2499 11.6567 22.2419 11.7491 22.1831 11.8076L21.5552 12.4355C21.496 12.4924 21.4047 12.499 21.3379 12.4512L20.4653 11.8408C20.2629 11.6982 19.996 11.6864 19.7818 11.8105C19.4202 12.0193 19.033 12.18 18.6299 12.2886C18.3921 12.3534 18.2133 12.5501 18.1714 12.793L17.9878 13.8398C17.9735 13.9214 17.9027 13.981 17.8198 13.981H16.9312C16.8483 13.981 16.7775 13.9214 16.7632 13.8398L16.5791 12.793C16.5365 12.5499 16.3569 12.3536 16.1187 12.2895C15.7154 12.181 15.328 12.0203 14.9663 11.8115C14.7521 11.6874 14.4852 11.6992 14.2827 11.8418L13.4141 12.4512C13.3462 12.4989 13.2539 12.4909 13.1953 12.4321L12.5674 11.8042C12.5086 11.7457 12.5006 11.6533 12.5483 11.5854L13.1592 10.7144C13.3018 10.5119 13.3136 10.245 13.1895 10.0308C12.9806 9.66929 12.8199 9.28203 12.7114 8.87891C12.6464 8.64131 12.4498 8.46274 12.207 8.4209L11.1602 8.2373C11.0786 8.22305 11.019 8.1522 11.019 8.06933L11.0195 7.18066C11.0195 7.0978 11.0791 7.02695 11.1606 7.0127L12.207 6.82861C12.4501 6.78604 12.6464 6.60645 12.7105 6.36816C12.819 5.96504 12.9797 5.57783 13.1885 5.21631C13.3126 5.00205 13.3008 4.73516 13.1582 4.53272L12.5488 3.66211C12.5011 3.59429 12.5091 3.5019 12.5679 3.44336L13.1963 2.81494C13.2548 2.7562 13.3472 2.74815 13.415 2.7959L14.2857 3.40674C14.4881 3.54927 14.755 3.56113 14.9692 3.43701C15.3308 3.22822 15.718 3.06753 16.1211 2.95899C16.3594 2.89492 16.539 2.69859 16.5816 2.45557L16.7651 1.40869C16.7801 1.32857 16.8497 1.27027 16.9312 1.26953H17.8193C17.9022 1.26948 17.9731 1.32905 17.9873 1.41065L18.1709 2.45752C18.2135 2.70054 18.3931 2.89688 18.6314 2.96094C19.0345 3.06943 19.4217 3.23013 19.7832 3.43897C19.9975 3.56309 20.2644 3.55127 20.4668 3.40869L21.3379 2.79785C21.4057 2.7501 21.4981 2.75816 21.5567 2.8169L22.1851 3.44531C22.2422 3.5041 22.2493 3.59512 22.2022 3.66211L21.5913 4.53467C21.4487 4.73711 21.4369 5.004 21.561 5.21826C21.7698 5.57979 21.9305 5.96699 22.0391 6.37012C22.1031 6.6084 22.2995 6.78799 22.5425 6.83057L23.5894 7.01416C23.671 7.02842 23.7305 7.09927 23.7305 7.18213V8.07031Z" fill="#777E90"/>
<path d="M17.375 4.59229C15.7001 4.59229 14.3423 5.9501 14.3423 7.625C14.3442 9.29912 15.7009 10.6558 17.375 10.6577C19.0499 10.6577 20.4077 9.2999 20.4077 7.625C20.4077 5.9501 19.0499 4.59229 17.375 4.59229ZM17.375 9.38818C16.4012 9.38818 15.6118 8.59878 15.6118 7.625C15.6116 6.65073 16.4007 5.86045 17.375 5.85937V5.86182C18.3488 5.86182 19.1382 6.65122 19.1382 7.625C19.1382 8.59878 18.3488 9.38818 17.375 9.38818Z" fill="#777E90"/>
</g>
<defs>
<clipPath id="clip0_217_4326">
<rect width="25" height="25" fill="white"/>
</clipPath>
</defs>
</svg>
