<svg width="25" height="25" viewBox="0 0 25 25" fill="none" xmlns="http://www.w3.org/2000/svg">
<g clip-path="url(#clip0_13_1769)">
<path d="M22.9764 6.43705C22.9635 5.76208 22.9513 5.12445 22.9513 4.50759C22.9513 4.02432 22.5596 3.63252 22.0762 3.63252C18.3339 3.63252 15.4845 2.55701 13.1095 0.247774C12.7697 -0.0826498 12.2291 -0.0825331 11.8894 0.247774C9.51463 2.55701 6.66577 3.63252 2.92364 3.63252C2.44037 3.63252 2.04858 4.02432 2.04858 4.50759C2.04858 5.12457 2.03644 5.76243 2.02349 6.43751C1.90355 12.7188 1.73927 21.3214 12.2129 24.9518C12.3057 24.984 12.4026 25.0001 12.4994 25.0001C12.5963 25.0001 12.6932 24.984 12.786 24.9518C23.2604 21.3213 23.0963 12.7185 22.9764 6.43705ZM12.4995 23.1964C3.51705 19.9333 3.65286 12.7852 3.77339 6.47088C3.78062 6.09192 3.78762 5.72463 3.79252 5.36457C7.29745 5.21662 10.1002 4.15453 12.4995 2.06441C14.8991 4.15453 17.7023 5.21674 21.2075 5.36457C21.2124 5.72451 21.2194 6.09157 21.2266 6.4703C21.347 12.7849 21.4827 19.9332 12.4995 23.1964Z" fill="#777E90"/>
<path d="M15.5129 9.46011L11.2894 13.6834L9.48709 11.8811C9.14535 11.5395 8.59126 11.5395 8.24964 11.8811C7.9079 12.223 7.9079 12.7769 8.24964 13.1187L10.6706 15.5397C10.8415 15.7105 11.0655 15.7959 11.2894 15.7959C11.5133 15.7959 11.7373 15.7105 11.9081 15.5397L16.7502 10.6977C17.0921 10.3559 17.0921 9.80185 16.7504 9.46022C16.4087 9.11848 15.8546 9.11836 15.5129 9.46011Z" fill="#777E90"/>
</g>
<defs>
<clipPath id="clip0_13_1769">
<rect width="25" height="25" fill="white"/>
</clipPath>
</defs>
</svg>
