<svg width="25" height="25" viewBox="0 0 25 25" fill="none" xmlns="http://www.w3.org/2000/svg">
<path d="M22.6562 4.6875C22.449 4.6875 22.2503 4.76981 22.1038 4.91632C21.9573 5.06284 21.875 5.26155 21.875 5.46875V21.0938C21.8748 21.3009 21.7924 21.4995 21.646 21.646C21.4995 21.7924 21.3009 21.8748 21.0938 21.875H2.34375C2.13655 21.875 1.93784 21.9573 1.79132 22.1038C1.64481 22.2503 1.5625 22.449 1.5625 22.6562C1.5625 22.8635 1.64481 23.0622 1.79132 23.2087C1.93784 23.3552 2.13655 23.4375 2.34375 23.4375H21.0938C21.7151 23.4368 22.3109 23.1897 22.7503 22.7503C23.1897 22.3109 23.4368 21.7151 23.4375 21.0938V5.46875C23.4375 5.26155 23.3552 5.06284 23.2087 4.91632C23.0622 4.76981 22.8635 4.6875 22.6562 4.6875Z" fill="#777E90"/>
<path d="M2.34376 20.3126C2.46057 20.3127 2.57592 20.2865 2.68129 20.2361C2.78666 20.1857 2.87937 20.1122 2.95258 20.0212L7.95594 13.8085L12.0423 16.768C12.1265 16.829 12.2221 16.8726 12.3235 16.8962C12.4248 16.9198 12.5298 16.9229 12.6324 16.9053C12.7349 16.8878 12.8329 16.8499 12.9207 16.794C13.0084 16.738 13.084 16.6651 13.1432 16.5796L16.7073 11.4167L19.2656 12.3429C19.3623 12.3786 19.4651 12.3949 19.568 12.3907C19.671 12.3865 19.7721 12.362 19.8656 12.3186C19.959 12.2751 20.043 12.2136 20.1126 12.1376C20.1821 12.0616 20.236 11.9726 20.271 11.8757C20.3061 11.7788 20.3216 11.6759 20.3167 11.573C20.3118 11.47 20.2866 11.3691 20.2425 11.2759C20.1985 11.1828 20.1364 11.0993 20.0599 11.0302C19.9834 10.9612 19.894 10.9079 19.7969 10.8735L16.6719 9.74206C16.5096 9.68343 16.3324 9.68015 16.1681 9.73273C16.0037 9.78532 15.8614 9.89081 15.7632 10.0328L12.3109 15.0339L8.27063 12.1079C8.10869 11.9898 7.9074 11.9387 7.70871 11.9653C7.51002 11.9919 7.32925 12.0941 7.20407 12.2506L1.73532 19.0415C1.64274 19.1562 1.58454 19.2948 1.56744 19.4413C1.55034 19.5877 1.57504 19.736 1.63869 19.8689C1.70234 20.0019 1.80234 20.1141 1.92711 20.1927C2.05188 20.2712 2.19633 20.3128 2.34376 20.3126Z" fill="#777E90"/>
</svg>
