<svg width="22" height="22" viewBox="0 0 22 22" fill="none" xmlns="http://www.w3.org/2000/svg">
<path d="M20.2549 13.9653C19.5258 13.3247 18.6416 12.7711 17.6266 12.3201C17.1927 12.1274 16.685 12.3228 16.4923 12.7565C16.2996 13.1902 16.495 13.698 16.9287 13.8908C17.7845 14.2712 18.522 14.7306 19.1204 15.2564C19.8581 15.9046 20.2812 16.8432 20.2812 17.832V19.4219C20.2812 19.8957 19.8957 20.2812 19.4219 20.2812H2.57812C2.10429 20.2812 1.71875 19.8957 1.71875 19.4219V17.832C1.71875 16.8432 2.14189 15.9046 2.87958 15.2564C3.74785 14.4934 6.27763 12.7188 11 12.7188C14.5065 12.7188 17.3594 9.86586 17.3594 6.35938C17.3594 2.85289 14.5065 0 11 0C7.49352 0 4.64062 2.85289 4.64062 6.35938C4.64062 8.40929 5.61581 10.2355 7.12643 11.3991C4.36234 12.0067 2.64291 13.1763 1.7451 13.9653C0.636139 14.9397 0 16.3489 0 17.832V19.4219C0 20.8435 1.15646 22 2.57812 22H19.4219C20.8435 22 22 20.8435 22 19.4219V17.832C22 16.3489 21.3639 14.9397 20.2549 13.9653ZM6.35938 6.35938C6.35938 3.80055 8.44118 1.71875 11 1.71875C13.5588 1.71875 15.6406 3.80055 15.6406 6.35938C15.6406 8.9182 13.5588 11 11 11C8.44118 11 6.35938 8.9182 6.35938 6.35938Z" fill="#777E90"/>
</svg>
