<svg width="25" height="25" viewBox="0 0 25 25" fill="none" xmlns="http://www.w3.org/2000/svg">
<path d="M20.8333 15.773V12.5001C20.8333 12.2238 20.7236 11.9588 20.5282 11.7635C20.3329 11.5681 20.0679 11.4584 19.7917 11.4584H13.5417V9.22715C14.5236 8.97361 15.3794 8.37066 15.9485 7.53131C16.5177 6.69196 16.7612 5.67383 16.6334 4.66777C16.5057 3.66172 16.0153 2.7368 15.2544 2.0664C14.4935 1.39599 13.5141 1.02612 12.5 1.02612C11.4859 1.02612 10.5065 1.39599 9.74559 2.0664C8.98464 2.7368 8.49433 3.66172 8.36654 4.66777C8.23875 5.67383 8.48227 6.69196 9.05145 7.53131C9.62063 8.37066 10.4764 8.97361 11.4583 9.22715V11.4584H5.20833C4.93206 11.4584 4.66711 11.5681 4.47176 11.7635C4.27641 11.9588 4.16667 12.2238 4.16667 12.5001V15.773C3.18473 16.0265 2.32897 16.6295 1.75979 17.4688C1.19061 18.3082 0.94709 19.3263 1.07488 20.3324C1.20266 21.3384 1.69298 22.2633 2.45392 22.9337C3.21487 23.6041 4.19419 23.974 5.20833 23.974C6.22247 23.974 7.2018 23.6041 7.96274 22.9337C8.72368 22.2633 9.214 21.3384 9.34179 20.3324C9.46957 19.3263 9.22605 18.3082 8.65687 17.4688C8.08769 16.6295 7.23193 16.0265 6.25 15.773V13.5417H18.75V15.773C17.7681 16.0265 16.9123 16.6295 16.3431 17.4688C15.7739 18.3082 15.5304 19.3263 15.6582 20.3324C15.786 21.3384 16.2763 22.2633 17.0373 22.9337C17.7982 23.6041 18.7775 23.974 19.7917 23.974C20.8058 23.974 21.7851 23.6041 22.5461 22.9337C23.307 22.2633 23.7973 21.3384 23.9251 20.3324C24.0529 19.3263 23.8094 18.3082 23.2402 17.4688C22.671 16.6295 21.8153 16.0265 20.8333 15.773ZM7.29166 19.7917C7.29166 20.2038 7.16948 20.6066 6.94056 20.9492C6.71164 21.2918 6.38627 21.5588 6.00559 21.7165C5.62491 21.8742 5.20602 21.9154 4.80189 21.835C4.39777 21.7547 4.02655 21.5562 3.73519 21.2649C3.44383 20.9735 3.24542 20.6023 3.16503 20.1982C3.08464 19.794 3.1259 19.3752 3.28358 18.9945C3.44127 18.6138 3.70829 18.2884 4.05089 18.0595C4.3935 17.8306 4.79629 17.7084 5.20833 17.7084C5.76087 17.7084 6.29077 17.9279 6.68147 18.3186C7.07217 18.7093 7.29166 19.2392 7.29166 19.7917ZM10.4167 5.2084C10.4167 4.79635 10.5388 4.39356 10.7678 4.05096C10.9967 3.70836 11.3221 3.44133 11.7027 3.28365C12.0834 3.12597 12.5023 3.08471 12.9064 3.1651C13.3106 3.24548 13.6818 3.4439 13.9731 3.73526C14.2645 4.02662 14.4629 4.39783 14.5433 4.80196C14.6237 5.20609 14.5824 5.62498 14.4247 6.00566C14.2671 6.38634 14 6.71171 13.6574 6.94063C13.3148 7.16955 12.912 7.29173 12.5 7.29173C11.9475 7.29173 11.4176 7.07224 11.0269 6.68154C10.6362 6.29084 10.4167 5.76093 10.4167 5.2084ZM19.7917 21.8751C19.3796 21.8751 18.9768 21.7529 18.6342 21.524C18.2916 21.295 18.0246 20.9697 17.8669 20.589C17.7092 20.2083 17.668 19.7894 17.7484 19.3853C17.8287 18.9812 18.0272 18.61 18.3185 18.3186C18.6099 18.0272 18.9811 17.8288 19.3852 17.7484C19.7893 17.668 20.2082 17.7093 20.5889 17.867C20.9696 18.0247 21.295 18.2917 21.5239 18.6343C21.7528 18.9769 21.875 19.3797 21.875 19.7917C21.875 20.3443 21.6555 20.8742 21.2648 21.2649C20.8741 21.6556 20.3442 21.8751 19.7917 21.8751Z" fill="#777E90"/>
</svg>
