<svg width="25" height="25" viewBox="0 0 25 25" fill="none" xmlns="http://www.w3.org/2000/svg">
<path d="M15.6238 10.1564H14.8426V8.59399C14.8426 6.87069 13.4411 5.46924 11.7178 5.46924C9.99453 5.46924 8.59308 6.87069 8.59308 8.59399V10.1564H7.81189C7.38067 10.1564 7.0307 10.5063 7.0307 10.9376V17.1871C7.0307 17.6183 7.38067 17.9683 7.81189 17.9683H15.6238C16.055 17.9683 16.405 17.6183 16.405 17.1871V10.9376C16.405 10.5063 16.055 10.1564 15.6238 10.1564ZM10.1555 8.59399C10.1555 7.73312 10.8554 7.03162 11.7178 7.03162C12.5803 7.03162 13.2802 7.73312 13.2802 8.59399V10.1564H10.1555V8.59399ZM14.8426 16.4059H8.59308V11.7187H14.8426V16.4059Z" fill="#777E90"/>
<path d="M24.509 7.86917C24.1075 7.70825 23.6528 7.90355 23.495 8.30508L23.0279 9.47374C21.6858 4.47569 17.1315 0.782227 11.7178 0.782227C5.25584 0.782227 0 6.03807 0 12.5001C0 18.9621 5.25584 24.2179 11.7178 24.2179C14.8473 24.2179 17.7892 22.9992 20.0047 20.7854C20.3094 20.4807 20.3094 19.9854 20.0047 19.6808C19.7 19.3761 19.2048 19.3761 18.9001 19.6808C16.9799 21.5994 14.4286 22.6555 11.7178 22.6555C6.11827 22.6555 1.56238 18.0996 1.56238 12.5001C1.56238 6.9005 6.11827 2.3446 11.7178 2.3446C16.594 2.3446 20.6765 5.80059 21.6499 10.3909L20.0828 8.82222C19.7781 8.51756 19.2829 8.51756 18.9782 8.82222C18.6735 9.12689 18.6735 9.62216 18.9782 9.92683L22.103 13.0516C22.1201 13.0688 22.1436 13.075 22.1623 13.0906C22.2217 13.1406 22.2826 13.1891 22.3545 13.2188C22.4482 13.2609 22.5514 13.2813 22.6545 13.2813C22.706 13.2813 22.7592 13.2766 22.8123 13.2656C22.8342 13.2609 22.8498 13.2438 22.8701 13.2375C22.9498 13.2141 23.0216 13.1781 23.0888 13.1328C23.1185 13.1125 23.1482 13.0985 23.1748 13.075C23.2607 12.9969 23.3326 12.9047 23.3779 12.7954C23.3779 12.7938 23.3794 12.7922 23.381 12.7907L24.9434 8.88472C25.1043 8.48475 24.9106 8.0301 24.509 7.86917Z" fill="#777E90"/>
</svg>
