<svg width="25" height="25" viewBox="0 0 25 25" fill="none" xmlns="http://www.w3.org/2000/svg">
<path d="M8.63965 16.0572C9.18325 15.525 9.52148 14.7838 9.52148 13.9648C9.52148 12.3494 8.20723 11.0352 6.5918 11.0352C4.97637 11.0352 3.66211 12.3494 3.66211 13.9648C3.66211 14.7838 4.00034 15.525 4.54395 16.0572C3.57065 16.7161 2.92969 17.8305 2.92969 19.0918V20.5566C2.92969 20.9611 3.25762 21.2891 3.66211 21.2891H9.52148C9.92598 21.2891 10.2539 20.9611 10.2539 20.5566V19.0918C10.2539 17.8305 9.61294 16.7161 8.63965 16.0572ZM6.5918 12.5C7.39951 12.5 8.05664 13.1571 8.05664 13.9648C8.05664 14.7726 7.39951 15.4297 6.5918 15.4297C5.78408 15.4297 5.12695 14.7726 5.12695 13.9648C5.12695 13.1571 5.78408 12.5 6.5918 12.5ZM8.78906 19.8242H4.39453V19.0918C4.39453 17.8802 5.38022 16.8945 6.5918 16.8945C7.80337 16.8945 8.78906 17.8802 8.78906 19.0918V19.8242Z" fill="#777E90"/>
<path d="M16.9434 15.4297C17.3479 15.4297 17.6758 15.1018 17.6758 14.6973C17.6758 14.2928 17.3479 13.9648 16.9434 13.9648C16.5389 13.9648 16.2109 14.2928 16.2109 14.6973C16.2109 15.1018 16.5389 15.4297 16.9434 15.4297Z" fill="#777E90"/>
<path d="M19.873 15.4297C20.2776 15.4297 20.6055 15.1018 20.6055 14.6973C20.6055 14.2928 20.2776 13.9648 19.873 13.9648C19.4685 13.9648 19.1406 14.2928 19.1406 14.6973C19.1406 15.1018 19.4685 15.4297 19.873 15.4297Z" fill="#777E90"/>
<path d="M14.0137 15.4297C14.4182 15.4297 14.7461 15.1018 14.7461 14.6973C14.7461 14.2928 14.4182 13.9648 14.0137 13.9648C13.6092 13.9648 13.2812 14.2928 13.2812 14.6973C13.2812 15.1018 13.6092 15.4297 14.0137 15.4297Z" fill="#777E90"/>
<path d="M19.873 16.8945H14.0137C13.6092 16.8945 13.2812 17.2225 13.2812 17.627C13.2812 18.0314 13.6092 18.3594 14.0137 18.3594H19.873C20.2775 18.3594 20.6055 18.0314 20.6055 17.627C20.6055 17.2225 20.2775 16.8945 19.873 16.8945Z" fill="#777E90"/>
<path d="M19.873 19.8242H14.0137C13.6092 19.8242 13.2812 20.1521 13.2812 20.5566C13.2812 20.9611 13.6092 21.2891 14.0137 21.2891H19.873C20.2775 21.2891 20.6055 20.9611 20.6055 20.5566C20.6055 20.1521 20.2775 19.8242 19.873 19.8242Z" fill="#777E90"/>
<path d="M21.8558 4.65793C21.5698 4.37184 21.106 4.37184 20.82 4.65788L18.4082 7.0697L17.4612 6.12272C17.1752 5.83669 16.7115 5.83669 16.4254 6.12272C16.1394 6.40876 16.1394 6.87248 16.4254 7.15851L17.8903 8.62336C18.0333 8.76642 18.2208 8.83791 18.4082 8.83791C18.5957 8.83791 18.7831 8.76642 18.9261 8.62341L21.8558 5.69372C22.1418 5.40768 22.1418 4.94396 21.8558 4.65793Z" fill="#777E90"/>
<path d="M19.1406 0.78125C15.9098 0.78125 13.2812 3.40977 13.2812 6.64062H2.19727C0.985693 6.64062 0 7.62632 0 8.83789V22.0215C0 23.2331 0.985693 24.2188 2.19727 24.2188H21.3379C22.5495 24.2188 23.5352 23.2331 23.5352 22.0215V10.5117C24.4463 9.47857 25 8.12314 25 6.64062C25 3.40977 22.3715 0.78125 19.1406 0.78125ZM22.0703 22.0215C22.0703 22.4253 21.7417 22.7539 21.3379 22.7539H2.19727C1.79341 22.7539 1.46484 22.4253 1.46484 22.0215V8.83789C1.46484 8.43403 1.79341 8.10547 2.19727 8.10547H13.4667C14.1187 10.6298 16.4154 12.5 19.1406 12.5C20.2072 12.5 21.208 12.2134 22.0703 11.7134V22.0215ZM19.1406 11.0352C16.7175 11.0352 14.7461 9.06377 14.7461 6.64062C14.7461 4.21748 16.7175 2.24609 19.1406 2.24609C21.5638 2.24609 23.5352 4.21748 23.5352 6.64062C23.5352 9.06377 21.5638 11.0352 19.1406 11.0352Z" fill="#777E90"/>
</svg>
