<svg width="20" height="20" viewBox="0 0 20 20" fill="none" xmlns="http://www.w3.org/2000/svg">
<path d="M10 11.6666C10.9205 11.6666 11.6667 10.9205 11.6667 9.99998C11.6667 9.07951 10.9205 8.33331 10 8.33331C9.07952 8.33331 8.33333 9.07951 8.33333 9.99998C8.33333 10.9205 9.07952 11.6666 10 11.6666Z" fill="#777E90"/>
<path d="M3.33334 11.6666C4.25381 11.6666 5 10.9205 5 9.99998C5 9.07951 4.25381 8.33331 3.33334 8.33331C2.41286 8.33331 1.66667 9.07951 1.66667 9.99998C1.66667 10.9205 2.41286 11.6666 3.33334 11.6666Z" fill="#777E90"/>
<path d="M16.6667 11.6666C17.5871 11.6666 18.3333 10.9205 18.3333 9.99998C18.3333 9.07951 17.5871 8.33331 16.6667 8.33331C15.7462 8.33331 15 9.07951 15 9.99998C15 10.9205 15.7462 11.6666 16.6667 11.6666Z" fill="#777E90"/>
</svg>
