<svg width="24" height="24" viewBox="0 0 24 24" fill="none" xmlns="http://www.w3.org/2000/svg">
<path d="M17.613 15.5159C19.0654 13.5339 19.716 11.0766 19.4345 8.63563C19.1529 6.19462 17.9601 3.94991 16.0947 2.3506C14.2292 0.751288 11.8286 -0.0846881 9.37326 0.00992167C6.91789 0.104531 4.58878 1.12275 2.85191 2.86087C1.11503 4.59899 0.0984798 6.92882 0.00562703 9.38426C-0.0872257 11.8397 0.750468 14.2396 2.35112 16.104C3.95176 17.9683 6.19732 19.1595 8.63853 19.4393C11.0797 19.7191 13.5366 19.0668 15.5175 17.6129H15.516C15.561 17.6729 15.609 17.7299 15.663 17.7854L21.438 23.5604C21.7193 23.8419 22.1008 24.0001 22.4987 24.0002C22.8966 24.0003 23.2783 23.8424 23.5598 23.5612C23.8412 23.2799 23.9994 22.8983 23.9996 22.5004C23.9997 22.1025 23.8418 21.7209 23.5605 21.4394L17.7855 15.6644C17.7319 15.6101 17.6742 15.56 17.613 15.5144V15.5159ZM18 9.74991C18 10.8333 17.7866 11.9061 17.372 12.907C16.9574 13.908 16.3497 14.8175 15.5836 15.5835C14.8176 16.3496 13.9081 16.9573 12.9071 17.3719C11.9062 17.7865 10.8334 17.9999 9.75 17.9999C8.6666 17.9999 7.5938 17.7865 6.59287 17.3719C5.59193 16.9573 4.68246 16.3496 3.91637 15.5835C3.15029 14.8175 2.5426 13.908 2.128 12.907C1.7134 11.9061 1.5 10.8333 1.5 9.74991C1.5 7.56187 2.3692 5.46345 3.91637 3.91628C5.46355 2.3691 7.56197 1.49991 9.75 1.49991C11.938 1.49991 14.0365 2.3691 15.5836 3.91628C17.1308 5.46345 18 7.56187 18 9.74991Z" fill="#777E90"/>
</svg>
