<svg width="25" height="25" viewBox="0 0 25 25" fill="none" xmlns="http://www.w3.org/2000/svg">
<g clip-path="url(#clip0_204_2474)">
<path d="M25 12.5C25 18.6209 20.6005 23.7143 14.7908 24.7903C14.0485 24.9281 13.2827 25 12.5 25C11.6398 25 10.8 24.9133 9.98877 24.7475C4.28877 23.5852 0 18.5434 0 12.5C0 9.16787 1.3041 6.13931 3.43008 3.89897C3.55303 3.7689 3.67905 3.64185 3.80762 3.51733C6.05713 1.3398 9.12192 0 12.5 0C15.8781 0 18.9429 1.3398 21.1923 3.51733C21.2454 3.56836 21.2979 3.62041 21.35 3.67241C23.6056 5.93315 25 9.0541 25 12.5Z" fill="#1BA27A"/>
<path d="M14.7906 10.6362V7.85054H21.3498V3.51733H3.42983V7.85049H9.98852V10.6469C4.69058 10.9178 0.72168 12.028 0.72168 13.3566C0.72168 14.6852 4.69058 15.7954 9.98852 16.0664V24.7475C10.7998 24.9133 11.6396 25 12.4998 25C13.2824 25 14.0482 24.9281 14.7906 24.7903V16.0771C20.1987 15.826 24.2778 14.7036 24.2778 13.3566C24.2778 12.0097 20.1987 10.8873 14.7906 10.6362ZM12.4998 15.0689C6.59004 15.0689 1.79927 14.1786 1.79927 13.0801C1.79927 12.1424 5.29058 11.3562 9.98857 11.1464V14.3316C10.785 14.4464 11.5875 14.5041 12.3896 14.5041C13.1921 14.5041 13.9947 14.4464 14.7906 14.3316V11.1367C19.5993 11.3321 23.1998 12.1275 23.1998 13.0801C23.1998 14.1786 18.4089 15.0689 12.4998 15.0689Z" fill="#F0EFEB"/>
</g>
<defs>
<clipPath id="clip0_204_2474">
<rect width="25" height="25" fill="white"/>
</clipPath>
</defs>
</svg>
