<svg width="125" height="125" viewBox="0 0 125 125" fill="none" xmlns="http://www.w3.org/2000/svg">
<path d="M62.4999 0C27.9822 0 0 27.9822 0 62.4999C0 97.0176 27.9822 125 62.4999 125C97.0176 125 125 97.0176 125 62.4999C124.963 27.9976 97.0024 0.0368826 62.4999 0ZM96.9061 43.3348L52.2632 87.9777C50.5198 89.7206 47.694 89.7206 45.9508 87.9777L28.0936 70.1204C26.3201 68.4076 26.2709 65.5815 27.9837 63.808C29.6965 62.0345 32.5226 61.9853 34.2962 63.6982C34.3333 63.7343 34.3699 63.7706 34.406 63.808L49.107 78.509L90.5937 37.0223C92.3672 35.3095 95.1933 35.3587 96.9061 37.1319C98.5771 38.862 98.5771 41.6047 96.9061 43.3348Z" fill="#2F67FF"/>
</svg>
