<svg width="50" height="50" viewBox="0 0 50 50" fill="none" xmlns="http://www.w3.org/2000/svg">
<circle cx="25" cy="25" r="25" fill="#2F67FF"/>
<path d="M33 29H29.7C29.8657 29.6579 29.955 30.3327 29.966 31.011C29.96 31.559 29.514 32 28.966 32H20V30H28C28 27.7909 26.2091 26 24 26H20C18.8 24.289 16.305 24 15.1 24H13V32.5L21.192 36.263C22.2 36.7665 23.3631 36.8625 24.44 36.531L37 32.667C37 32.667 36.208 29 33 29Z" fill="white"/>
<path fill-rule="evenodd" clip-rule="evenodd" d="M22 19C22 15.6863 24.6863 13 28 13C31.3123 13.0033 33.9967 15.6877 34 19C34 22.3137 31.3137 25 28 25C24.6863 25 22 22.3137 22 19ZM27 22H29V16H27V22Z" fill="white"/>
</svg>
