<svg width="20" height="20" viewBox="0 0 20 20" fill="none" xmlns="http://www.w3.org/2000/svg">
    <path fill-rule="evenodd" clip-rule="evenodd"
        d="M5.81204 0.5H14.188C17.3978 0.5 20 3.16116 20 6.44374V7.18592L20.0002 7.20241L20 7.21891V12.5201L20.0002 12.5366L20 12.5531V13.5563C20 16.8388 17.3978 19.5 14.188 19.5H5.81204C2.60219 19.5 0 16.8388 0 13.5563V6.44374C0 3.16116 2.60219 0.5 5.81204 0.5ZM18.5464 6.44374V6.45916H15.3504L15.1673 6.46431C13.4101 6.56244 12.0147 8.04914 12.0147 9.86949C12.0159 11.7531 13.5084 13.2787 15.3499 13.2798H18.5464V13.5563C18.5464 16.0179 16.595 18.0135 14.188 18.0135H5.81204C3.40498 18.0135 1.45358 16.0179 1.45358 13.5563V6.44374C1.45358 3.98214 3.40498 1.98651 5.81204 1.98651H14.188C16.595 1.98651 18.5464 3.98214 18.5464 6.44374ZM15.3508 7.94567L18.5464 7.94567V11.7933H15.3504L15.2033 11.7874C14.2329 11.7102 13.4689 10.8811 13.4683 9.86904C13.4683 8.80743 14.3109 7.94632 15.3508 7.94567ZM16.521 9.80844C16.521 9.39795 16.1956 9.06518 15.7942 9.06518H15.4921L15.3935 9.07196C15.0388 9.12118 14.7653 9.43215 14.7653 9.80844C14.7653 10.2189 15.0907 10.5517 15.4921 10.5517H15.7942L15.8928 10.5449C16.2475 10.4957 16.521 10.1847 16.521 9.80844ZM11.0807 5.74062C11.0807 5.33013 10.7553 4.99736 10.3539 4.99736H5.12203L5.0234 5.00415C4.66866 5.05337 4.39524 5.36434 4.39524 5.74062C4.39524 6.15111 4.72063 6.48388 5.12203 6.48388H10.3539L10.4525 6.47709C10.8073 6.42788 11.0807 6.1169 11.0807 5.74062Z"
        fill="#2F67FF" />
</svg>
